<?xml version="1.0" encoding="utf-8"?>
<!-- Generator: Adobe Illustrator 26.5.0, SVG Export Plug-In . SVG Version: 6.00 Build 0)  -->
<svg version="1.1" id="Layer_1" xmlns="http://www.w3.org/2000/svg" xmlns:xlink="http://www.w3.org/1999/xlink" x="0px" y="0px"
	 viewBox="0 0 1921.7 359.6" style="enable-background:new 0 0 1921.7 359.6;" xml:space="preserve">
<style type="text/css">
	.st0{fill:#FFFFFF;}
	.st1{fill:#020202;}
</style>
<path class="st0" d="M288.5,359.6c-22.4,0-38.8-4.3-49.7-12.9c-16.8-13.3-17.7-34.5-18.5-53.2c-0.6-14.4-1.1-26.9-8.6-33.2
	c-20-16.9-56.8-22-103.7-14.3C70,252.3,28.6,266.6,2.7,282.3l-1-1.7c26.2-15.9,67.8-30.3,106.1-36.6c47.4-7.8,84.8-2.6,105.3,14.7
	c8.1,6.9,8.7,19.7,9.3,34.6c0.8,18.3,1.7,38.9,17.7,51.7c17.9,14.2,51.6,16.3,103.1,6.4c142.8-27.4,281.3-62.2,423.6-106.4
	c123.2-38.3,250.4-84.1,388.9-140.1c25.8-10.4,68.3-17,103.3-1.1c21.4,9.7,36.2,26.1,44.2,48.9c6.4,18.2,2.8,31.4-0.3,43.1
	c-2.7,9.9-5,18.5-0.5,27.9c8.7,18.3,32.6,18.6,53.6,18.9c2.6,0,5.1,0.1,7.6,0.1c21.9,0.6,43.5-6.3,64.4-13l3.6-1.2
	c174.4-55.7,325.4-77.6,489.6-70.9l-0.1,2c-164-6.6-314.8,15.2-488.9,70.8l-3.6,1.2c-21,6.7-42.7,13.7-65,13.1
	c-2.5-0.1-5-0.1-7.6-0.1c-21.6-0.3-46.1-0.6-55.4-20c-4.8-10-2.4-18.9,0.4-29.2c3.1-11.4,6.5-24.4,0.4-42
	c-7.8-22.3-22.3-38.3-43.2-47.8c-32.3-14.6-74.4-10-101.8,1.1c-138.5,56-265.7,101.9-389,140.2C625,291.2,486.4,326,343.6,353.4
	C322.3,357.5,304,359.6,288.5,359.6L288.5,359.6z"/>
<path class="st0" d="M428.5,318.9c-28.9,0-63-11.2-78-37.4c-5.1-8.9-7-19.1-8.9-29c-1.7-9.1-3.5-18.5-7.8-26.8
	c-11.4-22.1-38.6-34.1-80.9-35.8c-93.1-3.7-172.7,12.9-250.4,52.1l-0.9-1.8c78-39.4,157.9-56,251.4-52.3
	c43.1,1.7,70.9,14.1,82.6,36.8c4.4,8.5,6.2,18,8,27.3c1.9,9.7,3.8,19.8,8.7,28.4c15.4,26.9,51.9,37.6,81.3,36.2
	c124.1-5.9,243.5-44.2,359-81.3c110.6-35.5,240.5-68.2,365.1-40.9c8.2,1.8,19.4,5.3,22.1,14.7c2.6,9.2-4.2,16.7-10.8,23.9
	c-2.6,2.8-5.2,5.7-7.2,8.6c-6.5,9.4-5.9,19.6-4.2,26.5c3.1,12.9,12.2,24.9,23.9,31.3c20,10.9,44.7,9.7,68.3,6.8
	c86.4-10.7,171.2-37.1,253.2-62.7c34.1-10.6,69.4-21.7,104.3-31.4c8.8-2.4,17.3-4.9,25.7-7.2c103.9-29.3,179-50.5,288.5-16.7
	l-0.6,1.9c-108.9-33.6-183.8-12.5-287.4,16.7c-8.4,2.4-16.9,4.8-25.7,7.2c-34.9,9.7-70.2,20.7-104.3,31.4
	c-82.1,25.6-166.9,52.1-253.5,62.8c-24,3-49,4.2-69.5-7c-12.1-6.6-21.6-19.1-24.8-32.6c-2.5-10.3-0.8-20.3,4.5-28.1
	c2.1-3,4.8-6,7.4-8.8c6.5-7.1,12.7-13.9,10.3-22c-2.4-8.4-12.9-11.6-20.6-13.3c-124.2-27.2-253.8,5.4-364.1,40.8
	c-115.6,37.1-235.2,75.6-359.6,81.4C432,318.9,430.3,318.9,428.5,318.9L428.5,318.9z"/>
<path class="st0" d="M2.5,309L0,304.6c125.9-71.5,251.9-118.2,374.6-138.9c40.1-6.8,95.6-13.7,114.6,4.3c5,4.7,7.1,10.9,6.3,18.2
	c-6.8,60.9,11.6,80.7,28.2,86.6c39.7,14.1,117.4,9.1,147-1.7c95.6-34.8,224.4-71,362.7-101.9c119.2-26.6,216.8-42.8,251.6-45.1
	c33.7-2.2,79.9-5.2,92,29.2c1.7,4.9,1.6,13.4,1.5,24.2c-0.3,25.3-0.8,63.4,22.4,86.3c14.4,14.1,36.4,20.9,65.5,20.1
	c76.5-2.2,155.4-28.8,239-57.1c67.5-22.8,137.3-46.4,215.5-61.4l0.9,4.9c-77.8,14.9-147.4,38.5-214.8,61.2
	c-83.9,28.4-163.2,55.1-240.4,57.3c-30.5,0.9-53.8-6.4-69.2-21.5c-24.8-24.4-24.3-63.8-23.9-90c0.1-9.9,0.2-18.4-1.2-22.5
	c-10.8-30.8-54.8-28-87-25.9c-34.6,2.2-131.9,18.4-250.8,45c-138,30.8-266.6,67-362.1,101.7c-30.2,11-108.3,16.7-150.4,1.7
	c-18.3-6.5-38.7-27.8-31.5-91.9c0.7-5.8-0.9-10.4-4.8-14.1c-19.4-18.3-87.8-6.8-110.3-3C253.4,191.2,127.9,237.8,2.5,309z"/>
<g>
	<g>
		<g>
			<path class="st0" d="M872.4,210l-271.6-30.7l71.7,92.1C672.5,271.4,872,210.2,872.4,210L872.4,210z"/>
			<path class="st1" d="M672.3,272l-0.2-0.3l-72.4-93l274.7,31.1l-1.7,0.7c-0.4,0.2-166.7,51.2-200,61.4L672.3,272L672.3,272z
				 M601.9,180l70.8,90.9c8.6-2.6,175.9-53.9,197.3-60.5L601.9,180L601.9,180z"/>
		</g>
		<g>
			<polygon class="st0" points="683.6,268 894.2,85.8 894.2,203.3 			"/>
			<path class="st1" d="M681.5,269.2L894.7,84.7v119L681.5,269.2z M893.7,86.9l-208,180l208-63.9V86.9z"/>
		</g>
		<g>
			<path class="st0" d="M835.5,136.6L704.2,1l-33.8,186.2c1.2,0.1,94.2,10.7,94.2,10.7S835.5,136.9,835.5,136.6L835.5,136.6z"/>
			<path class="st1" d="M764.8,198.4l-0.2,0c-0.9-0.1-93-10.6-94.2-10.7l-0.5-0.1l0.1-0.5L703.9,0l0.7,0.7L836,136.4l0,0.2
				c0,0.3,0,0.6-71.1,61.7L764.8,198.4L764.8,198.4z M671,186.8c7.4,0.8,87.6,9.9,93.5,10.6c23.2-19.9,66.2-57,70.3-60.8L704.5,2.1
				L671,186.8L671,186.8z"/>
		</g>
		<g>
			<path class="st0" d="M704.5,1.9l72.8,237.4"/>
			
				<rect x="740.4" y="-3.6" transform="matrix(0.956 -0.2934 0.2934 0.956 -2.7726 222.6575)" class="st1" width="1" height="248.3"/>
		</g>
	</g>
	<rect x="818" y="149.7" transform="matrix(0.112 -0.9937 0.9937 0.112 524.1266 994.4731)" class="st1" width="1" height="108.5"/>
</g>
<path class="st0" d="M520.2,1342.7c-22.4,0-38.8-4.3-49.7-12.9c-16.8-13.3-17.7-34.5-18.5-53.2c-0.6-14.4-1.1-26.9-8.6-33.2
	c-20-16.9-56.8-22-103.7-14.3c-38.1,6.3-79.4,20.5-105.4,36.3l-1-1.7c26.2-15.9,67.8-30.3,106.1-36.6c47.4-7.8,84.8-2.6,105.3,14.7
	c8.1,6.9,8.7,19.7,9.3,34.6c0.8,18.3,1.7,38.9,17.7,51.7c17.9,14.2,51.6,16.3,103.1,6.4c142.8-27.4,281.3-62.2,423.6-106.4
	c123.2-38.3,250.4-84.1,388.9-140.1c25.8-10.4,68.3-17,103.3-1.1c21.4,9.7,36.2,26.1,44.2,48.9c6.4,18.2,2.8,31.4-0.3,43.1
	c-2.7,9.9-5,18.5-0.5,27.9c8.7,18.3,32.6,18.6,53.6,18.9c2.6,0,5.1,0.1,7.6,0.1c21.9,0.6,43.5-6.3,64.4-13l3.6-1.2
	c174.4-55.7,325.4-77.6,489.6-70.9l-0.1,2c-164-6.6-314.8,15.2-488.9,70.8l-3.6,1.2c-21,6.7-42.7,13.7-65,13.1
	c-2.5-0.1-5-0.1-7.6-0.1c-21.6-0.3-46.1-0.6-55.4-20c-4.8-10-2.4-18.9,0.4-29.2c3.1-11.4,6.5-24.4,0.4-42
	c-7.8-22.3-22.3-38.3-43.2-47.8c-32.3-14.6-74.4-10-101.8,1.1c-138.5,56-265.7,101.9-389,140.2c-142.4,44.2-281,79.1-423.8,106.4
	C554,1340.7,535.7,1342.7,520.2,1342.7L520.2,1342.7z"/>
<path class="st0" d="M660.2,1302.1c-28.9,0-63-11.2-78-37.4c-5.1-8.9-7-19.1-8.9-29c-1.7-9.1-3.5-18.5-7.8-26.8
	c-11.4-22.1-38.6-34.1-80.9-35.8c-93.1-3.7-172.7,12.9-250.4,52.1l-0.9-1.8c78-39.4,157.9-56,251.4-52.3
	c43.1,1.7,70.9,14.1,82.6,36.8c4.4,8.5,6.2,18,8,27.3c1.9,9.7,3.8,19.8,8.7,28.4c15.4,26.9,51.9,37.6,81.3,36.2
	c124.1-5.9,243.5-44.2,359-81.3c110.6-35.5,240.5-68.2,365.1-40.9c8.2,1.8,19.4,5.3,22.1,14.7c2.6,9.2-4.2,16.7-10.8,23.9
	c-2.6,2.8-5.2,5.7-7.2,8.6c-6.5,9.4-5.9,19.6-4.2,26.5c3.1,12.9,12.2,24.9,23.9,31.3c20,10.9,44.7,9.7,68.3,6.8
	c86.4-10.7,171.2-37.1,253.2-62.7c34.1-10.6,69.4-21.7,104.3-31.4c8.8-2.4,17.3-4.9,25.7-7.2c103.9-29.3,179-50.5,288.5-16.7
	l-0.6,1.9c-108.9-33.6-183.8-12.5-287.4,16.7c-8.4,2.4-16.9,4.8-25.7,7.2c-34.9,9.7-70.2,20.7-104.3,31.4
	c-82.1,25.6-166.9,52.1-253.5,62.8c-24,3-49,4.2-69.5-7c-12.1-6.6-21.6-19.1-24.8-32.6c-2.5-10.3-0.8-20.3,4.5-28.1
	c2.1-3,4.8-6,7.4-8.8c6.5-7.1,12.7-13.9,10.3-22c-2.4-8.4-12.9-11.6-20.6-13.3c-124.2-27.2-253.8,5.4-364.1,40.8
	c-115.6,37.1-235.2,75.6-359.6,81.4C663.7,1302,662,1302.1,660.2,1302.1L660.2,1302.1z"/>
<path class="st0" d="M234.2,1292.1l-2.5-4.3c125.9-71.5,251.9-118.2,374.6-138.9c40.1-6.8,95.6-13.7,114.6,4.3
	c5,4.7,7.1,10.9,6.3,18.2c-6.8,60.9,11.6,80.7,28.2,86.6c39.7,14.1,117.4,9.1,147-1.7c95.6-34.8,224.4-71,362.7-101.9
	c119.2-26.6,216.8-42.8,251.6-45.1c33.7-2.2,79.9-5.2,92,29.2c1.7,4.9,1.6,13.4,1.5,24.2c-0.3,25.3-0.8,63.4,22.4,86.3
	c14.4,14.1,36.4,20.9,65.5,20.1c76.5-2.2,155.4-28.8,239-57.1c67.5-22.8,137.3-46.4,215.5-61.4l0.9,4.9
	c-77.8,14.9-147.4,38.5-214.8,61.2c-83.9,28.4-163.2,55.1-240.4,57.3c-30.5,0.9-53.8-6.4-69.2-21.5c-24.8-24.4-24.3-63.8-23.9-90
	c0.1-9.9,0.2-18.4-1.2-22.5c-10.8-30.8-54.8-28-87-25.9c-34.6,2.2-131.9,18.4-250.8,45c-138,30.8-266.6,67-362.1,101.7
	c-30.2,11-108.3,16.7-150.4,1.7c-18.3-6.5-38.7-27.8-31.5-91.9c0.7-5.8-0.9-10.4-4.8-14.1c-19.4-18.3-87.8-6.8-110.3-3
	C485.1,1174.4,359.6,1220.9,234.2,1292.1z"/>
<g>
	<g>
		<path class="st0" d="M1958.4,1881.2c-0.1-0.3-0.1-0.5,0-0.6c0.1-0.1,0.4-0.3,0.7-0.4c0.9-0.3,1.5-0.2,1.6,0.3l1.9,5.7l1.7,6
			l3.7-1.1c0.6-0.2,1,0,1.1,0.4c0.2,0.8,0.3,1.4,0.1,1.6c-0.1,0.1-0.3,0.2-0.5,0.3l-6.2,1.8l-0.4-0.2L1958.4,1881.2z"/>
		<path class="st0" d="M1971.3,1876.7c0.9-0.3,1.4-0.2,1.6,0.2l3.1,5.5l3.7,7.4c0.1,0.1,0.1,0.2,0.1,0.3s0,0.2,0,0.3
			c0,0.1-0.2,0.2-0.6,0.3c-1.1,0.3-1.8,0.3-2-0.2l-1.8-3.8l-2.7,0.8l0.6,4.1c0,0.3,0,0.5,0,0.6c0,0.1-0.1,0.2-0.2,0.2
			c-0.1,0-0.3,0.1-0.5,0.2l-0.5,0.2c-0.4,0.1-0.7,0.2-0.9,0.2c-0.3,0-0.5-0.1-0.6-0.2c0-0.1-0.1-0.1-0.1-0.2c0-0.1-0.1-0.9-0.3-2.7
			c-0.2-1.7-0.5-3.8-0.7-6.1c-0.3-2.4-0.5-3.9-0.6-4.7c-0.1-0.7-0.1-1.2-0.2-1.2C1968.5,1877.6,1969.4,1877.2,1971.3,1876.7z
			 M1971.4,1879.4l0.8,5.8l1.9-0.6L1971.4,1879.4z"/>
		<path class="st0" d="M1983.4,1873c0.9-0.3,1.3-0.2,1.5,0.2c0,0.1,0,0.1,0,0.2l0.9,14.5c0,0.3,0,0.5-0.1,0.7
			c-0.1,0.1-0.4,0.3-0.9,0.4c-1.2,0.4-1.9,0.3-2.2-0.1l-7.8-12.4c0,0,0-0.1-0.1-0.1c-0.1-0.4,0.3-0.7,1.1-1c0.4-0.1,0.8-0.2,1-0.1
			c0.3,0,0.5,0.2,0.7,0.5l5.7,9.4l-0.8-11c0-0.3,0-0.5,0.2-0.6C1982.8,1873.3,1983.1,1873.1,1983.4,1873z"/>
		<path class="st0" d="M1994.1,1876.2c0.5-0.2,0.8,0,1,0.4c0.2,0.6,0.3,1.1,0.3,1.3s-0.2,0.4-0.5,0.5l-3.7,1.2l1.3,4.1l4.4-1.4
			c0.3-0.1,0.5-0.1,0.7,0s0.3,0.2,0.3,0.4c0.2,0.6,0.3,1.1,0.2,1.3c0,0.3-0.2,0.5-0.6,0.6l-6.7,2.1l-0.4-0.2l-4.4-14l6.8-2.1
			c0.6-0.2,0.9,0,1,0.4c0.1,0.3,0.2,0.6,0.2,0.8s0,0.4-0.1,0.7c-0.1,0.2-0.2,0.4-0.5,0.5l-4.3,1.3l1.3,3.3L1994.1,1876.2z"/>
		<path class="st0" d="M2002,1882.9l-3.7-11.6l-2.4,0.8c-0.3,0.1-0.5,0.1-0.7-0.1c-0.2-0.1-0.3-0.4-0.5-0.9
			c-0.2-0.7-0.1-1.2,0.3-1.3l6.9-2.2c0.7-0.2,1.2-0.2,1.3,0.2c0.4,1.1,0.2,1.8-0.4,2l-2.1,0.7l1.4,3.8l2.5,7.8
			c0.1,0.2,0.1,0.4,0.1,0.5c0,0.2-0.2,0.4-0.7,0.5C2002.9,1883.4,2002.1,1883.3,2002,1882.9z"/>
		<path class="st0" d="M2013.7,1863.4c0.9-0.3,1.4-0.2,1.6,0.1l3.2,5.4l3.9,7.3c0.1,0.1,0.1,0.2,0.2,0.3s0,0.2,0,0.3
			c0,0.1-0.2,0.2-0.6,0.3c-1.1,0.4-1.8,0.3-2-0.1l-1.9-3.7l-2.7,0.9l0.7,4.1c0,0.3,0.1,0.5,0,0.6s-0.1,0.2-0.2,0.2
			c-0.1,0-0.3,0.1-0.5,0.2l-0.5,0.2c-0.4,0.1-0.7,0.2-0.9,0.2c-0.3,0-0.5-0.1-0.6-0.2c0-0.1-0.1-0.1-0.1-0.2s-0.2-0.9-0.4-2.6
			c-0.3-1.7-0.6-3.7-0.9-6.1c-0.3-2.4-0.6-3.9-0.7-4.7s-0.2-1.2-0.2-1.2C2011,1864.4,2011.9,1864,2013.7,1863.4z M2014,1866l0.9,5.8
			l1.9-0.6L2014,1866z"/>
		<path class="st0" d="M2023.9,1876.2l-4.7-14.3l6.6-2.2c0.7-0.2,1.1-0.1,1.2,0.2c0.2,0.6,0.3,1.1,0.2,1.4s-0.3,0.5-0.8,0.7l-4,1.3
			l1.3,3.3l4-1.3c0.5-0.2,0.8-0.1,1,0.3c0.2,0.7,0.3,1.1,0.3,1.4c0,0.3-0.2,0.5-0.6,0.6l-3.8,1.3l2.1,6.3c0,0.1,0,0.1,0,0.2
			c0,0.1-0.3,0.3-0.7,0.4c-0.4,0.1-0.9,0.2-1.3,0.3S2023.9,1876.3,2023.9,1876.2z"/>
		<path class="st0" d="M2038.4,1855.9c-0.1-0.3-0.1-0.5,0-0.6c0.1-0.1,0.3-0.2,0.7-0.4c0.9-0.3,1.5-0.2,1.6,0.2l2.3,5.6l2.6,7.8
			c0.1,0.2,0.1,0.4,0.1,0.4c0,0.2-0.2,0.4-0.7,0.5c-1.3,0.4-2,0.4-2.1,0l-1.8-5.5l-3.1,1l1.9,5.5c0.1,0.2,0.1,0.4,0.1,0.4
			c0,0.2-0.2,0.4-0.7,0.5c-1.3,0.4-2,0.4-2.1-0.1l-4.5-13.5c-0.1-0.3-0.1-0.5,0-0.6c0.1-0.1,0.3-0.2,0.7-0.4
			c0.9-0.3,1.4-0.2,1.6,0.2l2.2,5.6l3.1-1L2038.4,1855.9z"/>
		<path class="st0" d="M2047.3,1852.2c0.9-0.3,1.4-0.3,1.6,0.1l3.2,5.4l3.9,7.3c0.1,0.1,0.1,0.2,0.2,0.3c0,0.1,0,0.2,0,0.3
			c0,0.1-0.2,0.2-0.6,0.3c-1.1,0.4-1.8,0.3-2-0.1l-2-3.7l-2.7,0.9l0.7,4.1c0.1,0.3,0.1,0.5,0,0.6c0,0.1-0.1,0.2-0.2,0.2
			c-0.1,0-0.3,0.1-0.5,0.2l-0.5,0.2c-0.4,0.1-0.7,0.2-0.9,0.2c-0.3,0-0.5-0.1-0.6-0.2c0-0.1-0.1-0.1-0.1-0.2c0-0.1-0.2-0.9-0.4-2.6
			s-0.6-3.7-1-6.1c-0.4-2.4-0.6-3.9-0.7-4.7s-0.2-1.1-0.2-1.2C2044.6,1853.3,2045.5,1852.8,2047.3,1852.2z M2047.6,1854.9l1,5.8
			l1.9-0.6L2047.6,1854.9z"/>
		<path class="st0" d="M2057.4,1864.5l-4.5-13.4c-0.2-0.5,0.2-0.9,1.1-1.2c0.2-0.1,0.3-0.1,0.5-0.1c0.1,0,0.3,0,0.5,0
			s0.4,0.2,0.6,0.3l6.1,6.8l-2.8-7.9c-0.2-0.5,0.2-0.8,1.1-1.1c0.4-0.1,0.7-0.2,0.8-0.1c0.2,0,0.3,0.2,0.4,0.5l2.2,5.6l2.6,7.8
			c0.1,0.2,0.1,0.4,0.1,0.4c0,0.2-0.2,0.4-0.6,0.5c-0.8,0.3-1.4,0.2-1.7-0.2l-6.4-6.6l2.7,7.8c0.1,0.2,0.1,0.4,0.1,0.5
			c0,0.2-0.2,0.4-0.6,0.5C2058.3,1865,2057.6,1865,2057.4,1864.5z"/>
		<path class="st0" d="M2067.7,1861l-4.5-13.4c-0.2-0.5,0.2-0.9,1.1-1.2c0.2-0.1,0.3-0.1,0.5-0.1c0.1,0,0.3,0,0.5,0
			c0.2,0.1,0.4,0.2,0.6,0.3l6.1,6.8l-2.8-7.9c-0.2-0.5,0.2-0.8,1.1-1.1c0.4-0.1,0.7-0.2,0.8-0.1c0.2,0,0.3,0.2,0.4,0.5l2.2,5.6
			l2.6,7.8c0.1,0.2,0.1,0.4,0.1,0.4c0,0.2-0.2,0.4-0.6,0.5c-0.8,0.3-1.4,0.2-1.7-0.2l-6.4-6.6l2.7,7.8c0.1,0.2,0.1,0.4,0.1,0.5
			c0,0.2-0.2,0.4-0.6,0.5C2068.6,1861.5,2067.9,1861.5,2067.7,1861z"/>
		<path class="st0" d="M2078.1,1841.8c0.9-0.3,1.4-0.3,1.6,0.1l3.2,5.4l3.9,7.3c0.1,0.1,0.1,0.2,0.2,0.3c0,0.1,0,0.2,0,0.3
			c0,0.1-0.2,0.2-0.6,0.3c-1.1,0.4-1.8,0.3-2-0.1l-2-3.7l-2.7,0.9l0.7,4.1c0.1,0.3,0.1,0.5,0,0.6c0,0.1-0.1,0.2-0.2,0.2
			s-0.3,0.1-0.5,0.2l-0.5,0.2c-0.4,0.1-0.7,0.2-0.9,0.2c-0.3,0-0.5-0.1-0.6-0.2c0-0.1-0.1-0.1-0.1-0.2c0-0.1-0.2-0.9-0.4-2.6
			s-0.6-3.7-1-6.1c-0.4-2.4-0.6-3.9-0.7-4.7c-0.1-0.7-0.2-1.1-0.2-1.2C2075.4,1842.9,2076.3,1842.4,2078.1,1841.8z M2078.3,1844.5
			l1,5.8l1.9-0.6L2078.3,1844.5z"/>
		<path class="st0" d="M2093,1850.5l0.7-0.2l-3.2-9.7l-0.6,0.2c-0.3,0.1-0.5,0-0.6-0.1c-0.1-0.1-0.3-0.5-0.5-0.9
			c-0.2-0.7-0.1-1.1,0.3-1.3l3.4-1.1c0.6-0.2,0.9-0.1,1,0.3c0.4,1.1,0.3,1.8-0.1,1.9l-0.5,0.2l1.5,3.7l2,5.9l0.6-0.2
			c0.4-0.1,0.7,0,0.9,0.4c0.4,1.1,0.2,1.8-0.4,2l-3.6,1.2c-0.2,0.1-0.4,0-0.6-0.1c-0.1-0.1-0.3-0.5-0.5-0.9
			C2092.5,1851,2092.6,1850.6,2093,1850.5z"/>
		<path class="st0" d="M2098.5,1848.8c-0.1-0.2,0-0.5,0.2-0.9c0.2-0.4,0.3-0.6,0.4-0.7c0.1-0.1,0.2-0.1,0.3-0.1s0.3,0,0.5,0
			c1.2,0.4,2.1,0.5,2.8,0.3c0.7-0.2,1.1-0.6,1.2-1s0.1-0.9-0.1-1.4s-0.5-0.9-1-1.1c-0.5-0.2-1.2-0.4-2.3-0.6c-1-0.2-2-0.5-2.9-1.1
			s-1.5-1.2-1.7-2c-0.5-1.4-0.4-2.6,0.1-3.5s1.5-1.6,2.9-2.1c0.9-0.3,1.8-0.4,2.8-0.2c0.5,0,0.8,0.1,0.8,0.3c0,0.1,0,0.2,0.1,0.4
			c0,0.8-0.1,1.2-0.2,1.4c0,0-0.1,0.1-0.2,0.1s-0.5,0.1-1.2,0s-1.2,0-1.6,0.2c-0.4,0.1-0.7,0.4-0.9,0.7c-0.2,0.4-0.2,0.8,0,1.3
			c0.2,0.5,0.5,0.9,1.1,1.1c0.6,0.3,1.4,0.5,2.5,0.6c1.2,0.2,2.1,0.5,2.8,0.9s1.2,1.1,1.5,2c1,3.1,0.2,5.1-2.4,6
			c-2,0.7-3.6,0.6-5.1-0.2C2098.8,1849.1,2098.6,1848.9,2098.5,1848.8z"/>
		<path class="st0" d="M2109.3,1847.1l-4.6-13.8c1.2-0.6,2.3-1.1,3.3-1.4c1.8-0.6,3.1-0.6,4-0.2c0.9,0.4,1.6,1.4,2.1,2.9
			c0.7,2.1,0.6,3.7-0.4,4.8l4.2,4.6c0.2,0.3,0.4,0.5,0.4,0.5c0,0.1,0,0.2,0,0.2c0,0.1-0.2,0.3-0.6,0.4c-1.2,0.4-2,0.4-2.4,0
			l-3.8-4.3c-0.3,0.1-0.8,0.3-1.4,0.5l1.6,4.9c0.1,0.4,0.2,0.6,0.1,0.7s-0.2,0.2-0.6,0.3C2110.1,1847.6,2109.5,1847.6,2109.3,1847.1
			z M2109.6,1838.6c1-0.3,1.7-0.7,1.9-1.1c0.3-0.4,0.2-1.1-0.1-2.1c-0.2-0.6-0.5-1.1-0.8-1.3c-0.3-0.3-0.6-0.4-0.8-0.3
			c-0.9,0.3-1.4,0.5-1.6,0.6c-0.2,0.1-0.2,0.3-0.2,0.5l1.2,3.6c0.1,0.2,0.1,0.2,0.2,0.2C2109.4,1838.7,2109.5,1838.6,2109.6,1838.6z
			"/>
		<path class="st0" d="M2119.6,1828c0.9-0.3,1.4-0.2,1.6,0.1l3.2,5.4l3.8,7.4c0.1,0.1,0.1,0.2,0.2,0.3s0,0.2,0,0.3
			c0,0.1-0.2,0.2-0.6,0.3c-1.1,0.4-1.8,0.3-2-0.1l-1.9-3.7l-2.7,0.9l0.7,4.1c0,0.3,0.1,0.5,0,0.6c0,0.1-0.1,0.2-0.2,0.2
			c-0.1,0-0.3,0.1-0.5,0.2l-0.5,0.2c-0.4,0.1-0.7,0.2-0.9,0.2c-0.3,0-0.5-0.1-0.6-0.2c0-0.1-0.1-0.1-0.1-0.2c0-0.1-0.2-0.9-0.4-2.6
			c-0.3-1.7-0.6-3.8-0.9-6.1s-0.6-3.9-0.7-4.7c-0.1-0.7-0.2-1.2-0.2-1.2C2116.9,1829,2117.8,1828.6,2119.6,1828z M2119.9,1830.7
			l0.9,5.8l1.9-0.6L2119.9,1830.7z"/>
		<path class="st0" d="M2129.4,1838.5l0.7-0.2l-3.1-9.7l-0.6,0.2c-0.3,0.1-0.5,0-0.6-0.1c-0.1-0.1-0.3-0.5-0.4-0.9
			c-0.2-0.7-0.1-1.1,0.3-1.3l3.4-1.1c0.6-0.2,0.9-0.1,1,0.3c0.4,1.1,0.3,1.8-0.1,1.9l-0.5,0.2l1.4,3.7l1.9,5.9l0.6-0.2
			c0.4-0.1,0.7,0,0.9,0.4c0.3,1.1,0.2,1.8-0.4,2l-3.6,1.2c-0.2,0.1-0.4,0-0.6-0.1c-0.1-0.1-0.3-0.5-0.5-0.9
			C2128.9,1839,2129,1838.6,2129.4,1838.5z"/>
		<path class="st0" d="M2139.6,1828.2c0.5-0.2,0.8,0,1,0.4c0.2,0.6,0.3,1.1,0.3,1.3c0,0.3-0.2,0.4-0.5,0.5l-3.7,1.2l1.3,4.1l4.4-1.4
			c0.3-0.1,0.5-0.1,0.7,0c0.1,0.1,0.3,0.2,0.3,0.4c0.2,0.6,0.3,1.1,0.2,1.3c0,0.3-0.2,0.5-0.6,0.6l-6.7,2.1l-0.4-0.2l-4.5-14
			l6.8-2.1c0.5-0.2,0.9,0,1,0.3c0.1,0.3,0.2,0.6,0.2,0.8s0,0.4-0.1,0.7c-0.1,0.2-0.2,0.4-0.5,0.5l-4.3,1.3l1.3,3.3L2139.6,1828.2z"
			/>
		<path class="st0" d="M2140.9,1822c-0.1-0.3-0.1-0.5,0-0.6c0.1-0.1,0.3-0.3,0.7-0.4c0.9-0.3,1.5-0.2,1.6,0.3l2.1,5.6l1.9,5.9
			l3.7-1.2c0.6-0.2,1-0.1,1.2,0.4c0.3,0.8,0.3,1.4,0.1,1.6c-0.1,0.1-0.3,0.2-0.5,0.3l-6.1,1.9l-0.4-0.2L2140.9,1822z"/>
		<path class="st0" d="M2153.1,1831l0.7-0.2l-3-9.8l-0.6,0.2c-0.3,0.1-0.5,0-0.6-0.1c-0.1-0.2-0.3-0.5-0.4-0.9
			c-0.2-0.7-0.1-1.1,0.3-1.3l3.4-1c0.6-0.2,0.9-0.1,1,0.3c0.3,1.1,0.3,1.8-0.1,1.9l-0.5,0.1l1.4,3.8l1.8,5.9l0.6-0.2
			c0.5-0.1,0.7,0,0.9,0.4c0.3,1.1,0.2,1.8-0.4,2l-3.6,1.1c-0.2,0.1-0.4,0-0.6-0.1c-0.1-0.2-0.3-0.5-0.4-1
			C2152.6,1831.5,2152.7,1831.1,2153.1,1831z"/>
		<path class="st0" d="M2160.1,1815.3c0.9-0.3,1.4-0.2,1.6,0.2l3.1,5.5l3.7,7.4c0.1,0.1,0.1,0.2,0.1,0.3s0,0.2,0,0.3
			c0,0.1-0.2,0.2-0.6,0.3c-1.1,0.3-1.8,0.3-2-0.2l-1.9-3.7l-2.7,0.8l0.6,4.1c0,0.3,0,0.5,0,0.6s-0.1,0.2-0.2,0.2
			c-0.1,0-0.3,0.1-0.5,0.2l-0.5,0.2c-0.4,0.1-0.7,0.2-0.9,0.2c-0.3,0-0.5-0.1-0.6-0.2c0-0.1-0.1-0.1-0.1-0.2s-0.1-0.9-0.4-2.6
			c-0.2-1.7-0.5-3.8-0.8-6.1c-0.3-2.4-0.5-3.9-0.6-4.7c-0.1-0.7-0.1-1.2-0.2-1.2C2157.4,1816.3,2158.3,1815.8,2160.1,1815.3z
			 M2160.3,1818l0.8,5.8l1.9-0.6L2160.3,1818z"/>
		<path class="st0" d="M2169.9,1827.9l-4-13.6c-0.1-0.5,0.3-0.8,1.2-1.1c0.2-0.1,0.3-0.1,0.5-0.1s0.3,0,0.5,0.1s0.4,0.2,0.6,0.3
			l5.8,7l-2.5-8c-0.1-0.5,0.3-0.8,1.2-1.1c0.4-0.1,0.7-0.1,0.8-0.1s0.3,0.2,0.4,0.5l2,5.7l2.3,7.9c0.1,0.2,0.1,0.4,0.1,0.4
			c0,0.2-0.2,0.4-0.7,0.5c-0.8,0.2-1.4,0.2-1.7-0.3l-6.1-6.8l2.4,7.9c0.1,0.2,0.1,0.4,0.1,0.5c0,0.2-0.2,0.4-0.7,0.5
			C2170.7,1828.5,2170,1828.4,2169.9,1827.9z"/>
	</g>
	<path class="st0" d="M364.7,1951l-2.5-4.3c125.9-71.5,251.9-118.2,374.6-138.9c40.1-6.8,95.6-13.7,114.6,4.3
		c5,4.7,7.1,10.9,6.3,18.2c-6.8,60.9,11.6,80.7,28.2,86.6c39.7,14.1,117.4,9.1,147-1.7c95.6-34.8,224.4-71,362.7-101.9
		c119.2-26.6,216.8-42.8,251.6-45.1c33.7-2.2,79.9-5.2,92,29.2c1.7,4.9,1.6,13.4,1.5,24.2c-0.3,25.3-0.8,63.4,22.4,86.3
		c14.4,14.1,36.4,20.9,65.5,20.1c76.5-2.2,155.4-28.8,239-57.1c67.5-22.8,137.3-46.4,215.5-61.4l0.9,4.9
		c-77.8,14.9-147.4,38.5-214.8,61.2c-83.9,28.4-163.2,55.1-240.4,57.3c-30.5,0.9-53.8-6.4-69.2-21.5c-24.8-24.4-24.3-63.8-23.9-90
		c0.1-9.9,0.2-18.4-1.2-22.5c-10.8-30.8-54.8-28-87-25.9c-34.6,2.2-131.9,18.4-250.8,45c-138,30.8-266.6,67-362.1,101.7
		c-30.2,11-108.3,16.7-150.4,1.7c-18.3-6.5-38.7-27.8-31.5-91.9c0.7-5.8-0.9-10.4-4.8-14.1c-19.4-18.3-87.8-6.8-110.3-3
		C615.6,1833.3,490.1,1879.8,364.7,1951z"/>
</g>
</svg>
