<?xml version="1.0" encoding="UTF-8"?><svg id="Layer_1" xmlns="http://www.w3.org/2000/svg" width="1921.705" height="265.144" viewBox="0 0 1921.705 265.144"><defs><style>.cls-1{stroke-width:5px;}.cls-1,.cls-2{fill:none;stroke:#fff;stroke-miterlimit:10;}.cls-2{stroke-width:2px;}</style></defs><path class="cls-2" d="M2.169,187.069c47.68-28.996,164.191-60.815,210.208-21.911,27.365,23.135-34.711,124.662,131.009,92.882C642.99,200.584,902.815,113.904,1156.063,11.454c43.309-17.521,122.816-19.7,146.24,47.244,11.69,33.409-10.73,50.212-.785,71.102,10.049,21.11,38.741,18.984,62.113,19.591,23.372,.606,46.044-7.129,68.315-14.245,164.069-52.425,317.187-77.86,489.288-70.896"/><path class="cls-2" d="M2.169,146.845c80.158-40.48,161.132-55.772,250.861-52.22,31.287,1.239,67.399,8.474,81.758,36.299,8.931,17.306,6.984,38.832,16.667,55.729,15.361,26.805,51.32,38.19,82.18,36.733,122.979-5.807,240.552-43.242,359.295-81.387,119.645-38.435,244.354-67.178,364.624-40.859,8.759,1.917,18.885,5.407,21.353,14.028,3.489,12.184-10.649,21.257-17.854,31.683-13.355,19.325-.657,47.934,19.959,59.194,20.616,11.26,45.626,9.809,68.939,6.924,122.507-15.159,238.753-61.019,357.669-94.136,118.916-33.117,195.671-60.339,313.615-23.914"/><path class="cls-1" d="M1.234,212.379C116.532,146.919,244.284,95.814,375.022,73.767c32.425-5.468,122.396-19.803,117.955,19.775-6.886,61.359,11.808,82.867,29.823,89.28,40.855,14.543,118.729,9.224,148.683-1.686C892.223,100.735,1212.54,38.976,1285.052,34.272c34.044-2.209,78.194-4.58,89.476,27.559,7.563,21.545-24.054,135.536,91.867,132.253,137.048-3.882,277.149-84.395,454.839-118.494"/></svg>