<?xml version="1.0" encoding="utf-8"?>
<!-- Generator: Adobe Illustrator 26.5.0, SVG Export Plug-In . SVG Version: 6.00 Build 0)  -->
<svg version="1.1" id="Layer_1" xmlns="http://www.w3.org/2000/svg" xmlns:xlink="http://www.w3.org/1999/xlink" x="0px" y="0px"
	 viewBox="0 0 1921.7 265.2" style="enable-background:new 0 0 1921.7 265.2;" xml:space="preserve">
<style type="text/css">
	.st0{fill:#FFFFFF;}
	.st1{fill:none;}
</style>
<path class="st0" d="M288.5,265.2c-22.4,0-38.8-4.3-49.7-12.9c-16.8-13.3-17.7-34.5-18.5-53.2c-0.6-14.4-1.1-26.9-8.6-33.2
	c-20-16.9-56.8-22-103.7-14.3C70,158,28.6,172.2,2.7,188l-1-1.7c26.2-15.9,67.8-30.3,106.1-36.6c47.4-7.8,84.8-2.6,105.3,14.7
	c8.1,6.9,8.7,19.7,9.3,34.6c0.8,18.3,1.7,38.9,17.7,51.7c17.9,14.2,51.6,16.3,103.1,6.4C486,229.8,624.5,195,766.8,150.7
	c123.2-38.3,250.4-84.1,388.9-140.1c25.8-10.4,68.3-17,103.3-1.1c21.4,9.7,36.2,26.1,44.2,48.9c6.4,18.2,2.8,31.4-0.3,43.1
	c-2.7,9.9-5,18.5-0.5,27.9c8.7,18.3,32.6,18.6,53.6,18.9c2.6,0,5.1,0.1,7.6,0.1c21.9,0.6,43.5-6.4,64.4-13l3.6-1.2
	C1606,78.6,1757,56.7,1921.3,63.3l-0.1,2c-164-6.6-314.8,15.2-488.9,70.8l-3.6,1.2c-21,6.7-42.7,13.7-65,13.1
	c-2.5-0.1-5-0.1-7.6-0.1c-21.6-0.3-46.1-0.6-55.4-20c-4.8-10-2.4-18.9,0.4-29.2c3.1-11.4,6.5-24.4,0.4-42
	c-7.8-22.3-22.3-38.3-43.2-47.8c-32.3-14.6-74.4-10-101.8,1.1c-138.5,56-265.7,101.9-389,140.2c-142.4,44.2-281,79.1-423.8,106.4
	C322.3,263.2,304,265.2,288.5,265.2L288.5,265.2L288.5,265.2z"/>
<path class="st1" d="M428.5,224.6c-28.9,0-63-11.2-78-37.4c-5.1-8.9-7-19.1-8.9-29c-1.7-9.1-3.5-18.5-7.8-26.8
	c-11.4-22.1-38.6-34.1-80.9-35.8C159.9,92,80.3,108.6,2.6,147.8L1.7,146c78-39.4,157.9-56,251.4-52.3c43.1,1.7,70.9,14.1,82.6,36.8
	c4.4,8.5,6.2,18,8,27.3c1.9,9.7,3.8,19.8,8.7,28.4c15.4,26.9,51.9,37.6,81.3,36.2c124.1-5.9,243.5-44.2,359-81.3
	c110.6-35.5,240.5-68.2,365.1-40.9c8.2,1.8,19.4,5.3,22.1,14.7c2.6,9.2-4.2,16.7-10.8,23.9c-2.6,2.8-5.2,5.7-7.2,8.6
	c-6.5,9.4-5.9,19.6-4.2,26.5c3.1,12.9,12.2,24.9,23.9,31.3c20,10.9,44.7,9.7,68.3,6.8c86.4-10.7,171.2-37.1,253.2-62.7
	c34.1-10.6,69.4-21.7,104.3-31.4c8.8-2.4,17.3-4.9,25.7-7.2c103.9-29.3,179-50.5,288.5-16.7l-0.6,1.9
	c-108.9-33.6-183.8-12.5-287.4,16.7c-8.4,2.4-16.9,4.8-25.7,7.2c-34.9,9.7-70.2,20.7-104.3,31.4c-82.1,25.6-166.9,52.1-253.5,62.8
	c-24,3-49,4.2-69.5-7c-12.1-6.6-21.6-19.1-24.8-32.6c-2.5-10.3-0.8-20.3,4.5-28.1c2.1-3,4.8-6,7.4-8.8c6.5-7.1,12.7-13.9,10.3-22
	c-2.4-8.4-12.9-11.6-20.6-13.3C1033.1,75,903.6,107.6,793.2,143c-115.6,37.1-235.2,75.6-359.6,81.4
	C432,224.5,430.3,224.6,428.5,224.6L428.5,224.6L428.5,224.6z"/>
<path id="SVGID_x5F_1_x5F_" class="st1" d="M2.5,214.6L0,210.3C125.9,138.8,251.9,92.1,374.6,71.4c40.1-6.8,95.6-13.7,114.6,4.3
	c5,4.7,7.1,10.9,6.3,18.2c-6.8,60.9,11.6,80.7,28.2,86.6c39.7,14.1,117.4,9.1,147-1.7c95.6-34.8,224.4-71,362.7-101.9
	c119.2-26.6,216.8-42.8,251.6-45.1c33.7-2.2,79.9-5.2,92,29.2c1.7,4.9,1.6,13.4,1.5,24.2c-0.3,25.3-0.8,63.4,22.4,86.3
	c14.4,14.1,36.4,20.9,65.5,20.1c76.5-2.2,155.4-28.8,239-57.1c67.5-22.8,137.3-46.4,215.5-61.4l0.9,4.9
	c-77.8,14.9-147.4,38.5-214.8,61.2c-83.9,28.4-163.2,55.1-240.4,57.3c-30.5,0.9-53.8-6.4-69.2-21.5c-24.8-24.4-24.3-63.8-23.9-90
	c0.1-9.9,0.2-18.4-1.2-22.5c-10.8-30.8-54.8-28-87-25.9c-34.6,2.2-131.9,18.4-250.8,45c-138,30.8-266.6,67-362.1,101.7
	c-30.2,11-108.3,16.7-150.4,1.7c-18.3-6.5-38.7-27.8-31.5-91.9c0.7-5.8-0.9-10.4-4.8-14.1c-19.4-18.3-87.8-6.8-110.3-3
	C253.4,96.9,127.9,143.4,2.5,214.6z"/>
<text><textPath  xlink:href="#SVGID_x5F_1_x5F_" startOffset="45.7491%">
<tspan  class="st0" style="font-family:'ChauPhilomeneOne-Regular'; font-size:30px;">Hanna Israielian</tspan></textPath>
</text>
</svg>
