<?xml version="1.0" encoding="utf-8"?>
<!-- Generator: Adobe Illustrator 26.5.0, SVG Export Plug-In . SVG Version: 6.00 Build 0)  -->
<svg version="1.1" id="Layer_1" xmlns="http://www.w3.org/2000/svg" xmlns:xlink="http://www.w3.org/1999/xlink" x="0px" y="0px"
	 viewBox="0 0 1921.7 265.2" style="enable-background:new 0 0 1921.7 265.2;" xml:space="preserve">
<style type="text/css">
	.st0{fill:#FFFFFF;}
	.st1{font-family:'ArialMT';}
	.st2{font-size:12px;}
</style>
<path id="SVGID_x5F_1_x5F_" class="st0" d="M2.4,245.6l-2.5-4.3c125.9-71.5,251.9-118.2,374.6-138.9c40.1-6.8,95.6-13.7,114.6,4.3
	c5,4.7,7.1,10.9,6.3,18.2c-6.8,60.9,11.6,80.7,28.2,86.6c39.7,14.1,117.4,9.1,147-1.7c95.6-34.8,224.4-71,362.7-101.9
	c119.2-26.6,216.8-42.8,251.6-45.1c33.7-2.2,79.9-5.2,92,29.2c1.7,4.9,1.6,13.4,1.5,24.2c-0.3,25.3-0.8,63.4,22.4,86.3
	c14.4,14.1,36.4,20.9,65.5,20.1c76.5-2.2,155.4-28.8,239-57.1c67.5-22.8,137.3-46.4,215.5-61.4l0.9,4.9
	c-77.8,14.9-147.4,38.5-214.8,61.2c-83.9,28.4-163.2,55.1-240.4,57.3c-30.5,0.9-53.8-6.4-69.2-21.5c-24.8-24.4-24.3-63.8-23.9-90
	c0.1-9.9,0.2-18.4-1.2-22.5c-10.8-30.8-54.8-28-87-25.9c-34.6,2.2-131.9,18.4-250.8,45c-138,30.8-266.6,67-362.1,101.7
	c-30.2,11-108.3,16.7-150.4,1.7c-18.3-6.5-38.7-27.8-31.5-91.9c0.7-5.8-0.9-10.4-4.8-14.1c-19.4-18.3-87.8-6.8-110.3-3
	C253.3,127.9,127.8,174.4,2.4,245.6z"/>
<text class="st0 st1 st2"> </text>
<g>
	<path class="st0" d="M1522.8,193.9c-0.1-0.3,0-0.6,0.1-0.7c0.1-0.1,0.4-0.3,0.8-0.4c1-0.2,1.6-0.1,1.8,0.4l1.7,6.5l1.5,6.8l4.2-0.9
		c0.7-0.2,1.1,0,1.2,0.6c0.2,0.9,0.2,1.5,0,1.8c-0.1,0.1-0.3,0.2-0.5,0.3l-7,1.5l-0.4-0.3L1522.8,193.9z"/>
	<path class="st0" d="M1540.5,206c-0.6,0.9-1.2,1.3-1.8,1.5c-0.6,0.1-1.1,0.2-1.5,0.2c-0.4,0-0.7-0.1-1.1-0.3
		c-0.4-0.2-0.6-0.5-0.9-1c-0.2-0.5-0.4-1.1-0.6-2c-0.3-1.2,0.1-2.1,1.2-2.8l2.9-1.5c-0.2-0.9-0.5-1.5-0.7-1.8
		c-0.2-0.2-0.6-0.3-1.2-0.2c-0.6,0.1-1.1,0.3-1.4,0.6l-0.7,0.5l0,0c-0.1,0.1-0.2,0.1-0.4-0.1c-0.4-0.5-0.6-0.9-0.7-1.2
		c-0.1-0.3-0.1-0.5,0-0.5c0,0,0.1-0.1,0.1-0.1c0.6-0.6,1.5-1.1,2.7-1.4c1.2-0.3,2.1-0.3,2.8-0.2c0.7,0.2,1.3,0.6,1.7,1.4
		c0.5,0.7,0.9,1.9,1.2,3.5l1.2,5.5c0,0.1,0,0.2,0,0.2c0,0.1-0.3,0.3-0.8,0.4c-0.9,0.2-1.4,0.2-1.4,0L1540.5,206z M1537.1,203.9
		c0.2,1,0.7,1.5,1.3,1.4c0.4-0.1,0.7-0.2,0.9-0.4c0.3-0.4,0.3-1.4-0.1-3.2c-0.7,0.3-1.3,0.6-1.6,1
		C1537.2,203.1,1537,203.5,1537.1,203.9z"/>
	<path class="st0" d="M1541.1,195.2c0-0.2,0.2-0.3,0.7-0.5c0.5-0.1,1-0.2,1.5-0.2c0.5,0,0.7,0,0.8,0.1l3.9,7.7l-0.2-8.5
		c0-0.2,0.2-0.4,0.6-0.5s0.8-0.2,1-0.2c0.7-0.1,1-0.1,1,0.1l0,0l-0.2,11.4c0,0.2-0.3,0.4-0.8,0.5c-0.5,0.1-1,0.2-1.6,0.3
		c-0.6,0.1-0.9,0.1-0.9,0l-5.8-10L1541.1,195.2C1541.1,195.2,1541.1,195.2,1541.1,195.2z"/>
	<path class="st0" d="M1558.4,202.8c-1.5,0.4-2.7,0.2-3.5-0.5c-0.8-0.7-1.5-2.1-2-4.3c-0.4-1.6-0.6-2.8-0.5-3.7
		c0.1-0.9,0.3-1.5,0.8-2c0.5-0.4,1.3-0.8,2.4-1.1c1.1-0.3,1.9-0.3,2.6-0.2c0.6,0.2,1.2,0.6,1.6,1.4c0.5,0.8,0.9,1.9,1.3,3.4
		c0,0.1,0,0.2,0.1,0.3c0,0.1-0.1,0.2-0.5,0.4c-0.3,0.2-0.7,0.3-1.2,0.4l-3.3,0.8c0.5,1.7,0.8,2.6,1.1,2.8c0.2,0.1,0.4,0.1,0.7,0
		c1.9-0.5,3.2-0.9,3.8-1.3c0,0,0,0,0.1,0c0.1-0.1,0.2,0,0.3,0.1c0.1,0.1,0.2,0.5,0.4,1c0.1,0.5,0.1,0.9-0.1,1
		C1561.7,201.9,1560.4,202.3,1558.4,202.8z M1555.2,194.4l0.4,1.7l2.2-0.5c-0.5-1.7-0.9-2.5-1.1-2.4c-0.5,0.1-0.9,0.3-1.2,0.5
		C1555.3,193.9,1555.2,194.2,1555.2,194.4z"/>
	<path class="st0" d="M1562.9,191.7l-1.7,0.4c-0.2,0-0.3,0-0.3,0c0-0.1-0.1-0.2-0.1-0.3c-0.2-0.6-0.1-1,0.1-1.1l1.6-0.8l0.6-2.8
		c0.1-0.3,0.4-0.5,0.9-0.6c0.1,0,0.3,0.2,0.6,0.7c0.2,0.5,0.5,1.1,0.9,1.9l2.1-0.5c0.2-0.1,0.4,0.2,0.6,0.8c0.2,0.6,0.1,0.9-0.1,1
		l-2.1,0.5l1.8,6.9l1,2.4l0,0c0,0.1,0.1,0.1,0,0.2c0,0.1-0.4,0.3-1,0.5s-1.1,0.1-1.3-0.1l-1.6-1.8L1562.9,191.7z"/>
	<path class="st0" d="M1581.9,195.5c-0.6,0.9-1.1,1.4-1.7,1.6c-0.6,0.2-1.1,0.3-1.4,0.3s-0.8-0.1-1.1-0.2c-0.4-0.2-0.7-0.5-0.9-1
		c-0.3-0.5-0.5-1.1-0.7-2c-0.3-1.2,0-2.1,1-2.9l2.9-1.6c-0.3-0.9-0.5-1.5-0.8-1.7c-0.2-0.2-0.7-0.3-1.2-0.1c-0.6,0.2-1,0.4-1.4,0.7
		l-0.7,0.5l0,0c-0.1,0.1-0.2,0.1-0.4-0.1c-0.4-0.5-0.7-0.9-0.7-1.2c-0.1-0.3-0.1-0.5-0.1-0.5c0,0,0.1-0.1,0.1-0.1
		c0.6-0.7,1.5-1.2,2.6-1.5c1.1-0.3,2.1-0.4,2.8-0.3c0.7,0.1,1.3,0.6,1.8,1.3c0.5,0.7,1,1.9,1.4,3.4l1.4,5.4c0,0.1,0,0.1,0,0.2
		c0,0.1-0.3,0.3-0.8,0.4c-0.9,0.2-1.4,0.3-1.4,0L1581.9,195.5z M1578.4,193.6c0.3,1,0.7,1.5,1.4,1.4c0.4-0.1,0.7-0.3,0.8-0.5
		c0.3-0.4,0.2-1.5-0.2-3.2c-0.7,0.3-1.3,0.7-1.6,1.1C1578.4,192.8,1578.3,193.2,1578.4,193.6z"/>
	<path class="st0" d="M1589.5,178.9c-0.5-0.1-1,0-1.6,0.1c-0.6,0.2-0.9,0.5-0.9,1.1c0,0.6,0.2,1.6,0.6,2.9l2.1-0.6
		c0.2-0.1,0.4,0.2,0.6,0.8c0.2,0.6,0.1,0.9-0.1,1l-1.9,0.5l3.9,13.8c0,0.1,0,0.1,0,0.2c0,0.1-0.3,0.3-0.8,0.4
		c-0.5,0.1-1,0.2-1.5,0.3c-0.5,0.1-0.8,0.1-0.8,0l-3.9-13.8l-1.7,0.5c-0.2,0-0.3,0-0.3,0c0-0.1-0.1-0.2-0.1-0.3
		c-0.2-0.6-0.2-1,0-1.1l1.6-0.8c-0.7-2.3-0.8-3.9-0.4-4.9c0.4-1,1.4-1.7,3.2-2.2c1.1-0.3,2.1-0.3,2.9,0l0,0c0.1,0,0.2,0.1,0.3,0.3
		c0.1,0.2,0.1,0.4,0.1,0.6c0,0.2,0,0.5,0,0.7c0,0.2-0.1,0.4-0.1,0.5c-0.1,0.1-0.1,0.1-0.2,0.1c-0.1,0-0.1,0-0.1,0L1589.5,178.9z"/>
	<path class="st0" d="M1601.9,173.4c-0.1-0.3-0.1-0.5,0-0.7c0.1-0.1,0.4-0.3,0.8-0.4c1-0.3,1.6-0.2,1.8,0.3l2.3,6.3l2.6,8.8
		c0.1,0.2,0.1,0.4,0.1,0.5c0,0.2-0.2,0.4-0.7,0.6c-1.4,0.4-2.2,0.4-2.4-0.1l-1.9-6.2l-3.5,1.1l1.9,6.2c0.1,0.2,0.1,0.4,0.1,0.5
		c0,0.2-0.2,0.4-0.7,0.5c-1.4,0.4-2.2,0.4-2.4-0.2l-4.6-15.2c-0.1-0.3-0.1-0.5,0-0.7c0.1-0.1,0.4-0.3,0.8-0.4c1-0.3,1.6-0.2,1.8,0.3
		l2.3,6.4l3.5-1.1L1601.9,173.4z"/>
	<path class="st0" d="M1616.2,185.5c-0.5,0.9-1.1,1.4-1.7,1.6s-1.1,0.3-1.4,0.3c-0.4,0-0.8,0-1.1-0.2c-0.4-0.2-0.7-0.5-1-1
		c-0.3-0.5-0.5-1.1-0.8-1.9c-0.4-1.2,0-2.1,1-2.9l2.8-1.7c-0.3-0.9-0.6-1.5-0.8-1.7c-0.3-0.2-0.7-0.2-1.2-0.1
		c-0.6,0.2-1,0.4-1.4,0.7l-0.7,0.5l0,0c-0.1,0.1-0.2,0.1-0.4-0.1c-0.4-0.5-0.7-0.8-0.8-1.2c-0.1-0.3-0.1-0.5-0.1-0.5
		c0-0.1,0.1-0.1,0.1-0.1c0.6-0.7,1.4-1.2,2.5-1.6c1.1-0.4,2-0.5,2.8-0.4c0.7,0.1,1.3,0.5,1.8,1.2c0.5,0.7,1,1.8,1.5,3.4l1.6,5.4
		c0,0.1,0,0.1,0,0.2c0,0.1-0.3,0.3-0.8,0.4c-0.9,0.3-1.4,0.3-1.4,0.1L1616.2,185.5z M1612.6,183.6c0.3,1,0.8,1.5,1.4,1.3
		c0.4-0.1,0.7-0.3,0.8-0.5c0.3-0.4,0.2-1.5-0.3-3.2c-0.7,0.3-1.2,0.7-1.6,1.2C1612.6,182.8,1612.5,183.2,1612.6,183.6z"/>
	<path class="st0" d="M1622.7,172.1c1.1-0.3,1.9-0.3,2.6,0.2c0.7,0.5,1.3,1.6,1.8,3.2l2.1,6.5c0,0.1,0,0.1,0,0.2
		c0,0.1-0.3,0.3-0.8,0.4c-0.5,0.2-1,0.3-1.5,0.4c-0.5,0.1-0.8,0.1-0.8,0l-2.1-6.5c-0.5-1.6-0.9-2.3-1.1-2.3
		c-0.5,0.2-1.1,0.6-1.8,1.4l2.6,8.1c0,0.1,0,0.1,0,0.2c0,0.1-0.3,0.3-0.8,0.4s-1,0.3-1.5,0.4c-0.5,0.1-0.8,0.1-0.8,0l-3.4-10.6
		c-0.1-0.2,0.2-0.4,0.7-0.6c0.9-0.3,1.4-0.3,1.6-0.1c0,0,0,0,0,0l0.7,0.7C1621.4,173,1622.1,172.3,1622.7,172.1z"/>
	<path class="st0" d="M1633,168.8c1-0.3,1.9-0.3,2.6,0.2c0.7,0.5,1.3,1.6,1.9,3.2l2.1,6.5c0,0.1,0,0.1,0,0.2c0,0.1-0.3,0.3-0.8,0.4
		s-1,0.3-1.5,0.4c-0.5,0.1-0.8,0.1-0.8,0l-2.1-6.5c-0.5-1.6-0.9-2.3-1.1-2.3c-0.5,0.2-1.1,0.6-1.8,1.4l2.6,8.1c0,0.1,0,0.1,0,0.2
		c0,0.1-0.3,0.3-0.8,0.4s-1,0.3-1.5,0.4c-0.5,0.1-0.8,0.1-0.8,0l-3.5-10.5c-0.1-0.2,0.2-0.4,0.7-0.6c0.9-0.3,1.4-0.3,1.6-0.2
		c0,0,0,0,0,0l0.7,0.7C1631.7,169.6,1632.4,168.9,1633,168.8z"/>
	<path class="st0" d="M1646.1,175.7c-0.5,0.9-1.1,1.5-1.6,1.7c-0.6,0.2-1,0.3-1.4,0.4c-0.4,0-0.8,0-1.1-0.2c-0.4-0.2-0.7-0.5-1-0.9
		c-0.3-0.5-0.6-1.1-0.8-1.9c-0.4-1.1-0.1-2.1,0.9-2.9l2.8-1.8c-0.3-0.9-0.6-1.5-0.9-1.7c-0.3-0.2-0.7-0.2-1.2,0
		c-0.6,0.2-1,0.4-1.4,0.8l-0.6,0.5l0,0c-0.1,0.1-0.2,0.1-0.4-0.1c-0.4-0.5-0.7-0.8-0.8-1.1c-0.1-0.3-0.1-0.5-0.1-0.5
		c0-0.1,0.1-0.1,0-0.1c0.5-0.7,1.4-1.2,2.5-1.6c1.1-0.4,2-0.5,2.7-0.4s1.3,0.5,1.9,1.2c0.5,0.7,1.1,1.8,1.6,3.3l1.7,5.3
		c0,0.1,0,0.1,0,0.2c0,0.1-0.3,0.3-0.7,0.4c-0.9,0.3-1.4,0.3-1.4,0.1L1646.1,175.7z M1642.5,174c0.3,1,0.8,1.5,1.4,1.3
		c0.4-0.1,0.7-0.3,0.8-0.5c0.3-0.4,0.2-1.5-0.4-3.2c-0.7,0.3-1.2,0.7-1.5,1.2C1642.4,173.2,1642.3,173.6,1642.5,174z"/>
	<path class="st0" d="M1655.7,170.3l0.8-0.3l-3.8-10.8l-0.6,0.2c-0.3,0.1-0.5,0.1-0.7-0.1c-0.2-0.2-0.3-0.5-0.5-1
		c-0.3-0.8-0.2-1.3,0.3-1.4l3.7-1.3c0.6-0.2,1-0.1,1.2,0.3c0.4,1.3,0.4,2-0.1,2.1l-0.5,0.2l1.7,4.2l2.3,6.6l0.6-0.2
		c0.5-0.2,0.8,0,1,0.4c0.4,1.3,0.3,2-0.4,2.2l-4,1.4c-0.3,0.1-0.5,0-0.6-0.1c-0.2-0.2-0.3-0.5-0.5-1
		C1655.2,170.9,1655.3,170.5,1655.7,170.3z"/>
	<path class="st0" d="M1666.2,160.6l-0.1,0l-0.9-0.1c-0.7,0-1.3,0-1.7,0.2c-0.6,0.3-0.8,0.7-0.6,1.2c0.1,0.2,0.3,0.4,0.6,0.4
		c0.3,0.1,0.5,0.1,0.7,0.1c0.2,0,0.4,0.1,0.8,0.1c1.2,0.1,2.2,0.3,2.9,0.7c0.7,0.4,1.2,0.8,1.3,1.4c0.4,1.2,0.4,2.2,0.1,3.1
		c-0.4,0.9-1.1,1.6-2.1,2c-1.1,0.4-1.9,0.5-2.6,0.5c-0.7-0.1-1.4-0.3-1.9-0.7c-0.1,0-0.1,0-0.1-0.1c0-0.1,0-0.1,0-0.2
		c0-0.1,0.1-0.4,0.3-0.9c0.2-0.5,0.4-0.8,0.5-0.8c0.1,0,0.1,0,0.2,0c1,0.3,1.8,0.4,2.5,0.1c0.4-0.1,0.6-0.4,0.8-0.7
		c0.1-0.3,0.1-0.6,0-0.8c-0.1-0.3-0.3-0.4-0.6-0.5c-0.3-0.1-0.6-0.2-1-0.2s-0.6-0.1-0.6-0.1c0,0-0.1,0-0.1,0c-0.1,0-0.1,0-0.2,0
		c-0.8-0.1-1.6-0.3-2.3-0.7c-0.7-0.4-1.1-0.8-1.4-1.5c-0.4-1.1-0.4-2,0-2.8c0.4-0.7,1.2-1.3,2.5-1.7c0.5-0.2,1-0.3,1.4-0.3
		c0.6-0.1,1.1,0,1.5,0.1l0,0c0.1,0,0.2,0.1,0.3,0.2c0.1,0.1,0.1,0.3,0.2,0.6C1666.4,160,1666.4,160.5,1666.2,160.6z"/>
	<path class="st0" d="M1670.9,157c0.9-1.2,1.5-1.9,1.9-2c0.4-0.1,0.7-0.2,1.1-0.2c0.4,0,0.6,0.1,0.8,0.2l0.3,0.1
		c0.1,1,0.2,1.6,0.1,1.9c0,0.3-0.1,0.4-0.3,0.5c-0.2,0.1-0.5,0.1-0.8,0c-0.4,0-0.6,0-0.9,0.1c-0.2,0.1-0.6,0.5-1.2,1.2l2.8,7.7
		c0,0.1,0,0.1,0,0.2c0,0.1-0.3,0.3-0.7,0.4c-0.5,0.2-0.9,0.3-1.3,0.4c-0.4,0.1-0.7,0.1-0.7,0l-3.8-10.4c-0.1-0.2,0.2-0.5,0.8-0.7
		c0.6-0.2,1-0.2,1.2-0.1l0,0L1670.9,157z"/>
	<path class="st0" d="M1683.8,162.4c-0.5,0.9-1,1.5-1.6,1.7c-0.6,0.2-1,0.3-1.4,0.4c-0.4,0.1-0.8,0-1.1-0.2c-0.4-0.2-0.7-0.5-1-0.9
		c-0.3-0.4-0.6-1.1-0.9-1.9c-0.4-1.1-0.1-2.1,0.8-2.9l2.7-1.9c-0.3-0.9-0.7-1.5-0.9-1.7c-0.3-0.2-0.7-0.2-1.2,0
		c-0.6,0.2-1,0.5-1.3,0.8l-0.6,0.6l0,0c-0.1,0.1-0.2,0.1-0.4,0c-0.4-0.4-0.7-0.8-0.8-1.1c-0.1-0.3-0.1-0.5-0.1-0.5
		c0-0.1,0.1-0.1,0-0.1c0.5-0.7,1.4-1.3,2.5-1.7c1.1-0.4,2-0.6,2.7-0.5c0.7,0.1,1.3,0.4,1.9,1.1c0.6,0.7,1.1,1.8,1.7,3.3l1.9,5.3
		c0,0.1,0,0.1,0,0.2c0,0.1-0.3,0.3-0.7,0.5c-0.9,0.3-1.3,0.4-1.4,0.1L1683.8,162.4z M1680.2,160.8c0.4,1,0.9,1.4,1.5,1.3
		c0.4-0.1,0.7-0.3,0.8-0.5c0.3-0.4,0.1-1.5-0.5-3.2c-0.7,0.4-1.2,0.8-1.5,1.2C1680.1,160,1680,160.4,1680.2,160.8z"/>
	<path class="st0" d="M1684.9,147.9c-1,0.4-1.7,0.1-2.1-0.9c-0.4-1-0.1-1.7,1-2.1c1-0.4,1.7-0.1,2.1,0.9S1685.9,147.6,1684.9,147.9z
		 M1688.4,161.5l-3.9-10.4c-0.1-0.2,0.1-0.4,0.6-0.6c0.5-0.2,1-0.3,1.5-0.4c0.5-0.1,0.7-0.1,0.8,0l3.9,10.4c0,0.1,0,0.1,0,0.2
		c0,0.1-0.3,0.3-0.7,0.5s-0.9,0.3-1.4,0.4C1688.7,161.6,1688.4,161.6,1688.4,161.5z"/>
	<path class="st0" d="M1697,158.7c-1.5,0.6-2.7,0.5-3.6,0c-0.9-0.6-1.7-1.9-2.5-4c-0.6-1.5-0.9-2.7-0.9-3.6c0-0.9,0.2-1.6,0.6-2.1
		c0.4-0.5,1.2-0.9,2.2-1.3c1-0.4,1.9-0.5,2.5-0.5c0.6,0.1,1.2,0.5,1.8,1.2c0.5,0.7,1.1,1.8,1.6,3.3c0,0.1,0.1,0.2,0.1,0.3
		c0,0.1-0.1,0.2-0.4,0.4c-0.3,0.2-0.7,0.4-1.1,0.5l-3.2,1.2c0.6,1.6,1.1,2.5,1.4,2.7c0.2,0.1,0.4,0,0.7-0.1c1.8-0.7,3-1.2,3.6-1.7
		c0,0,0,0,0.1,0c0.1-0.1,0.2,0,0.3,0.1c0.1,0.1,0.3,0.4,0.5,0.9c0.2,0.5,0.2,0.8,0,1C1700.2,157.3,1699,157.9,1697,158.7z
		 M1693,150.7l0.6,1.6l2.1-0.8c-0.7-1.6-1.1-2.3-1.4-2.2c-0.5,0.2-0.8,0.4-1.1,0.6C1692.9,150.2,1692.9,150.5,1693,150.7z"/>
	<path class="st0" d="M1705.5,155.1c0,0.1,0,0.1,0,0.2c0,0.1-0.3,0.3-0.7,0.5c-0.5,0.2-0.9,0.3-1.4,0.4c-0.5,0.1-0.7,0.1-0.7,0
		l-6-15.7c-0.1-0.2,0.1-0.4,0.6-0.6c0.5-0.2,0.9-0.3,1.2-0.4c0.3-0.1,0.5,0,0.6,0l2.9,6.6L1705.5,155.1z"/>
	<path class="st0" d="M1703.6,140.9c-1,0.4-1.7,0.1-2.1-0.9c-0.4-1-0.1-1.7,0.9-2.1c1-0.4,1.7-0.1,2.1,0.9
		C1704.9,139.8,1704.6,140.5,1703.6,140.9z M1707.3,154.4l-4-10.4c-0.1-0.2,0.1-0.4,0.6-0.6c0.5-0.2,1-0.3,1.5-0.4
		c0.5-0.1,0.7-0.1,0.8,0l4,10.4c0,0.1,0,0.1,0,0.2c0,0.1-0.3,0.3-0.7,0.5c-0.5,0.2-0.9,0.3-1.4,0.4
		C1707.6,154.5,1707.3,154.5,1707.3,154.4z"/>
	<path class="st0" d="M1716.5,150.1c-0.5,0.9-1,1.5-1.6,1.7c-0.6,0.2-1,0.4-1.4,0.4c-0.4,0.1-0.8,0-1.1-0.1s-0.7-0.4-1-0.9
		c-0.3-0.4-0.6-1.1-0.9-1.9c-0.4-1.1-0.2-2.1,0.8-3l2.7-1.9c-0.4-0.9-0.7-1.4-0.9-1.6c-0.3-0.2-0.7-0.2-1.2,0
		c-0.6,0.2-1,0.5-1.3,0.8l-0.6,0.6l0,0c-0.1,0.1-0.2,0.1-0.4,0c-0.5-0.4-0.7-0.8-0.9-1.1c-0.1-0.3-0.2-0.5-0.1-0.5
		c0-0.1,0-0.1,0-0.1c0.5-0.7,1.3-1.3,2.4-1.7c1.1-0.4,2-0.6,2.7-0.5c0.7,0.1,1.3,0.4,1.9,1.1c0.6,0.7,1.1,1.8,1.7,3.3l2,5.2
		c0,0.1,0,0.1,0,0.2c0,0.1-0.3,0.3-0.7,0.5c-0.9,0.3-1.3,0.4-1.4,0.2L1716.5,150.1z M1712.8,148.5c0.4,1,0.9,1.4,1.5,1.2
		c0.4-0.2,0.7-0.3,0.8-0.5c0.3-0.4,0.1-1.5-0.6-3.2c-0.7,0.4-1.2,0.8-1.5,1.3C1712.8,147.7,1712.7,148.1,1712.8,148.5z"/>
	<path class="st0" d="M1722.2,136.3c1-0.4,1.9-0.4,2.6,0.1c0.7,0.5,1.4,1.5,2,3.1l2.5,6.3c0,0.1,0,0.1,0,0.2c0,0.1-0.3,0.3-0.7,0.5
		s-1,0.3-1.5,0.5c-0.5,0.1-0.8,0.1-0.8,0.1l-2.5-6.3c-0.6-1.6-1-2.3-1.2-2.2c-0.5,0.2-1.1,0.7-1.7,1.5l3.1,7.9c0,0.1,0,0.1,0,0.2
		c0,0.1-0.3,0.3-0.7,0.5c-0.5,0.2-1,0.3-1.5,0.5c-0.5,0.1-0.8,0.1-0.8,0.1l-4-10.3c-0.1-0.2,0.1-0.4,0.7-0.7
		c0.9-0.3,1.4-0.4,1.6-0.3c0,0,0,0,0,0l0.7,0.6C1720.9,137.3,1721.6,136.6,1722.2,136.3z"/>
</g>
</svg>
