<?xml version="1.0" encoding="UTF-8"?><svg id="Layer_1" xmlns="http://www.w3.org/2000/svg" width="1921.704" height="183.974" viewBox="0 0 1921.704 183.974"><defs><style>.cls-1{fill:#fff;}</style></defs><g><path class="cls-1" d="M1596.18,116.255c-.081-.281-.067-.49,.039-.625,.107-.135,.353-.258,.737-.368,.922-.266,1.456-.169,1.602,.288l1.948,5.684,1.739,5.972,3.729-1.073c.628-.181,1.008-.04,1.141,.421,.24,.833,.262,1.368,.066,1.604-.103,.127-.256,.219-.461,.278l-6.188,1.781-.396-.22-3.955-13.742Z"/><path class="cls-1" d="M1609.025,111.72c.882-.262,1.42-.206,1.614,.168l3.052,5.499,3.651,7.448c.063,.12,.111,.235,.144,.344s.026,.207-.017,.297c-.043,.089-.25,.188-.62,.299-1.138,.338-1.817,.275-2.038-.188l-1.844-3.751-2.685,.797,.584,4.146c.042,.28,.047,.473,.016,.58-.03,.105-.096,.181-.193,.224-.099,.044-.263,.1-.493,.168l-.537,.159c-.447,.133-.736,.19-.866,.174-.312-.02-.506-.087-.582-.203-.031-.06-.055-.115-.07-.167-.015-.051-.131-.935-.349-2.65-.217-1.716-.467-3.763-.749-6.141-.281-2.378-.466-3.937-.554-4.676-.087-.738-.138-1.155-.151-1.248-.036-.31,.859-.735,2.688-1.278Zm.171,2.683l.763,5.803,1.898-.563-2.661-5.239Z"/><path class="cls-1" d="M1621.201,108.059c.854-.261,1.338-.206,1.45,.163,.02,.064,.032,.13,.039,.197l.916,14.524c.025,.313,0,.529-.074,.65-.075,.12-.367,.258-.877,.413-1.187,.362-1.918,.32-2.192-.126l-7.847-12.433c-.028-.047-.05-.096-.065-.146-.113-.37,.264-.688,1.132-.951,.421-.129,.766-.175,1.034-.139,.27,.037,.489,.196,.658,.479l5.711,9.403-.842-10.992c-.031-.283,.021-.498,.158-.645,.137-.146,.403-.279,.799-.399Z"/><path class="cls-1" d="M1631.899,111.282c.509-.159,.835-.01,.979,.448,.195,.624,.29,1.062,.285,1.315s-.166,.429-.484,.528l-3.741,1.17,1.271,4.065,4.409-1.378c.31-.083,.538-.088,.687-.016s.257,.217,.324,.433c.195,.624,.271,1.071,.231,1.342-.041,.271-.233,.461-.577,.568l-6.72,2.101-.4-.21-4.393-14.049,6.776-2.119c.551-.158,.889-.04,1.012,.354,.095,.348,.16,.624,.196,.829s.018,.424-.057,.657c-.073,.232-.238,.389-.492,.468l-4.257,1.331,1.267,3.313,3.684-1.152Z"/><path class="cls-1" d="M1639.746,117.903l-3.711-11.644-2.382,.76c-.31,.084-.532,.064-.67-.06-.171-.142-.329-.441-.476-.898-.23-.725-.13-1.155,.302-1.293l6.937-2.21c.736-.235,1.168-.155,1.294,.238,.36,1.131,.235,1.793-.374,1.987l-2.141,.661,1.404,3.813,2.491,7.75c.076,.241,.12,.402,.132,.482,.006,.193-.213,.361-.657,.503-1.284,.409-2,.379-2.149-.091Z"/><path class="cls-1" d="M1651.475,98.397c.874-.285,1.414-.244,1.618,.124l3.199,5.414,3.853,7.347c.066,.119,.117,.232,.152,.34s.032,.206-.008,.297c-.041,.09-.245,.195-.612,.315-1.128,.369-1.809,.324-2.042-.132l-1.945-3.699-2.661,.869,.696,4.128c.049,.279,.06,.472,.031,.579s-.091,.184-.188,.229c-.097,.046-.26,.106-.487,.181l-.532,.174c-.444,.146-.731,.211-.861,.197-.312-.011-.508-.072-.588-.187-.033-.06-.058-.114-.074-.165s-.157-.931-.421-2.64c-.264-1.71-.569-3.749-.915-6.118-.347-2.37-.573-3.923-.681-4.659s-.169-1.151-.186-1.244c-.045-.308,.84-.758,2.652-1.351Zm.243,2.677l.92,5.78,1.883-.615-2.803-5.165Z"/><path class="cls-1" d="M1661.67,111.241l-4.721-14.28,6.551-2.166c.676-.209,1.071-.136,1.188,.219,.214,.646,.293,1.118,.237,1.417s-.312,.524-.767,.675l-4.026,1.331,1.301,3.298,3.969-1.312c.52-.172,.846-.055,.979,.35,.218,.658,.309,1.124,.272,1.396-.037,.272-.239,.469-.605,.59l-3.817,1.262,2.097,6.343c.025,.076,.035,.128,.031,.158-.029,.122-.257,.253-.681,.394-.424,.14-.858,.248-1.304,.325s-.68,.077-.705,.002Z"/><path class="cls-1" d="M1676.134,90.957c-.089-.265-.087-.459,.006-.581,.093-.123,.328-.248,.708-.375,.91-.305,1.45-.225,1.619,.238l2.267,5.568,2.604,7.775c.071,.216,.113,.363,.127,.443,.009,.193-.209,.364-.651,.513-1.276,.428-1.991,.414-2.144-.041l-1.842-5.5-3.11,1.042,1.854,5.475c.072,.215,.114,.362,.127,.442,.009,.193-.208,.365-.65,.514-1.265,.423-1.977,.395-2.138-.086l-4.517-13.483c-.093-.278-.094-.479,0-.601,.093-.123,.328-.248,.708-.375,.91-.305,1.445-.237,1.606,.2l2.247,5.639,3.11-1.042-1.932-5.766Z"/><path class="cls-1" d="M1685.041,87.225c.872-.294,1.412-.258,1.619,.108l3.249,5.385,3.919,7.312c.068,.118,.12,.23,.156,.338,.036,.106,.034,.206-.005,.297-.04,.091-.243,.198-.609,.321-1.125,.379-1.806,.341-2.043-.113l-1.979-3.682-2.653,.895,.734,4.121c.052,.278,.063,.471,.036,.578-.026,.107-.089,.186-.186,.231-.097,.047-.259,.108-.486,.186l-.53,.179c-.442,.148-.729,.217-.859,.205-.312-.008-.509-.068-.589-.182-.034-.059-.06-.113-.077-.164-.017-.051-.165-.929-.444-2.636s-.604-3.743-.972-6.11c-.367-2.366-.608-3.917-.723-4.652s-.18-1.149-.197-1.242c-.047-.308,.833-.766,2.64-1.374Zm.268,2.674l.974,5.771,1.876-.632-2.85-5.14Z"/><path class="cls-1" d="M1695.2,99.523l-4.525-13.396c-.158-.468,.218-.855,1.127-1.162,.189-.064,.341-.107,.452-.132,.111-.023,.268-.009,.468,.043s.398,.157,.593,.316l6.08,6.812-2.796-7.9c-.153-.455,.225-.836,1.134-1.144,.38-.128,.653-.171,.822-.13,.169,.042,.307,.199,.413,.473l2.229,5.602,2.624,7.769c.073,.215,.115,.362,.129,.442,.009,.193-.208,.365-.649,.515-.821,.277-1.394,.21-1.715-.202l-6.39-6.603,2.669,7.839c.077,.227,.122,.381,.135,.461,.01,.193-.207,.365-.649,.515-1.263,.427-1.979,.388-2.15-.118Z"/><path class="cls-1" d="M1705.503,96.043l-4.525-13.396c-.157-.467,.219-.854,1.128-1.161,.189-.064,.34-.108,.452-.132,.111-.023,.268-.009,.468,.042,.2,.053,.397,.158,.593,.317l6.079,6.812-2.795-7.9c-.153-.455,.225-.836,1.134-1.144,.379-.128,.653-.171,.822-.13,.168,.042,.306,.2,.412,.474l2.23,5.601,2.624,7.769c.072,.215,.114,.362,.128,.442,.009,.194-.207,.365-.649,.515-.821,.277-1.393,.21-1.715-.201l-6.389-6.604,2.668,7.839c.077,.228,.122,.381,.135,.461,.01,.193-.207,.365-.649,.515-1.263,.427-1.979,.388-2.15-.118Z"/><path class="cls-1" d="M1715.827,76.832c.872-.294,1.411-.258,1.619,.108l3.249,5.385,3.919,7.312c.068,.117,.12,.23,.156,.338,.036,.106,.034,.206-.005,.297-.04,.091-.243,.198-.609,.321-1.125,.379-1.806,.341-2.044-.113l-1.979-3.682-2.653,.895,.734,4.121c.052,.278,.063,.471,.036,.578-.026,.107-.089,.185-.186,.231s-.259,.108-.486,.186l-.53,.179c-.442,.148-.729,.217-.859,.205-.312-.008-.509-.068-.589-.182-.034-.059-.06-.113-.077-.164-.017-.051-.165-.929-.444-2.636s-.604-3.743-.972-6.11c-.368-2.366-.609-3.917-.723-4.652-.114-.735-.18-1.149-.197-1.242-.048-.308,.832-.766,2.64-1.374Zm.268,2.674l.974,5.771,1.876-.632-2.85-5.14Z"/><path class="cls-1" d="M1730.707,85.505l.683-.229-3.242-9.692-.569,.19c-.257,.072-.455,.047-.594-.075-.148-.147-.3-.455-.457-.923-.236-.708-.146-1.132,.271-1.271l3.357-1.123c.557-.187,.9-.083,1.031,.309,.377,1.126,.344,1.762-.099,1.91l-.475,.158,1.459,3.73,1.992,5.893,.568-.19c.447-.136,.736-.007,.867,.385,.351,1.134,.229,1.8-.365,1.999l-3.584,1.199c-.232,.063-.418,.034-.557-.088-.148-.147-.303-.462-.463-.942-.237-.708-.179-1.121,.176-1.239Z"/><path class="cls-1" d="M1736.305,83.811c-.057-.171,.014-.454,.213-.851,.198-.396,.341-.622,.427-.68,.087-.057,.174-.1,.263-.129s.253-.021,.493,.025c1.181,.423,2.125,.517,2.833,.281,.709-.236,1.116-.554,1.222-.954s.07-.867-.106-1.398-.509-.898-.998-1.101c-.489-.203-1.245-.395-2.267-.574-1.022-.181-1.98-.536-2.874-1.068s-1.473-1.196-1.737-1.994c-.472-1.416-.445-2.574,.078-3.472s1.5-1.584,2.93-2.06c.873-.29,1.797-.365,2.771-.226,.502,.03,.771,.145,.81,.343,.013,.08,.037,.198,.075,.354-.013,.764-.066,1.217-.159,1.36-.029,.038-.11,.079-.243,.123s-.519,.057-1.157,.037-1.157,.037-1.557,.169c-.398,.133-.684,.383-.857,.749-.173,.367-.176,.804-.007,1.31,.168,.506,.548,.889,1.141,1.148,.592,.26,1.437,.453,2.532,.581,1.172,.187,2.101,.475,2.785,.865s1.183,1.054,1.494,1.99c1.035,3.112,.236,5.106-2.396,5.981-1.961,.651-3.647,.587-5.06-.194-.375-.24-.591-.446-.647-.617Z"/><path class="cls-1" d="M1747.096,82.091l-4.553-13.83c1.226-.628,2.312-1.098,3.263-1.411,1.76-.579,3.084-.649,3.973-.212,.888,.438,1.582,1.416,2.082,2.936,.7,2.128,.572,3.742-.385,4.844l4.176,4.626c.243,.271,.381,.453,.412,.549,.031,.095,.038,.159,.021,.192-.013,.131-.21,.259-.59,.384-1.229,.404-2.029,.401-2.403-.009l-3.816-4.303c-.309,.13-.779,.299-1.412,.507l1.613,4.901c.117,.354,.154,.588,.114,.699s-.244,.229-.611,.349c-1.09,.359-1.718,.285-1.884-.222Zm.215-8.43c1.013-.334,1.65-.701,1.911-1.103,.261-.402,.227-1.104-.103-2.104-.2-.608-.457-1.057-.771-1.347-.312-.29-.59-.396-.83-.316-.899,.296-1.44,.495-1.625,.598-.184,.103-.24,.262-.169,.477l1.188,3.609c.054,.165,.114,.243,.183,.235,.067-.008,.139-.025,.215-.05Z"/><path class="cls-1" d="M1757.399,63.036c.875-.285,1.414-.243,1.618,.125l3.191,5.419,3.842,7.353c.066,.119,.117,.232,.152,.34s.032,.207-.009,.297c-.041,.091-.245,.195-.612,.315-1.129,.366-1.81,.321-2.042-.136l-1.939-3.702-2.663,.866,.69,4.129c.049,.278,.059,.472,.03,.579-.028,.106-.091,.184-.188,.229-.098,.045-.26,.105-.488,.18l-.532,.173c-.444,.145-.731,.21-.861,.196-.312-.011-.508-.074-.587-.188-.033-.06-.059-.114-.075-.165-.016-.051-.155-.931-.416-2.641-.262-1.71-.564-3.75-.907-6.12s-.567-3.923-.674-4.66c-.105-.736-.167-1.15-.184-1.244-.044-.308,.841-.757,2.654-1.346Zm.239,2.677l.912,5.781,1.883-.612-2.795-5.169Z"/><path class="cls-1" d="M1767.112,73.514l.686-.22-3.126-9.73-.571,.184c-.258,.069-.456,.041-.594-.082-.146-.149-.294-.459-.445-.929-.229-.711-.133-1.134,.286-1.269l3.37-1.083c.559-.179,.901-.071,1.027,.321,.363,1.13,.322,1.767-.122,1.909l-.476,.153,1.414,3.747,1.922,5.915,.571-.184c.448-.13,.735,.002,.861,.396,.338,1.139,.208,1.803-.388,1.994l-3.6,1.156c-.232,.062-.418,.029-.556-.095-.146-.148-.296-.464-.451-.947-.229-.71-.165-1.123,.19-1.237Z"/><path class="cls-1" d="M1777.359,63.23c.509-.162,.835-.014,.98,.443,.197,.623,.295,1.061,.291,1.314-.004,.253-.165,.43-.482,.53l-3.736,1.186,1.289,4.061,4.403-1.397c.31-.084,.538-.09,.687-.019,.148,.072,.258,.216,.326,.432,.197,.623,.276,1.07,.236,1.341-.039,.272-.231,.462-.574,.571l-6.71,2.129-.402-.208-4.452-14.03,6.768-2.147c.55-.161,.889-.044,1.013,.35,.097,.347,.163,.623,.2,.828s.02,.424-.054,.657c-.073,.232-.236,.39-.49,.471l-4.251,1.349,1.28,3.308,3.679-1.167Z"/><path class="cls-1" d="M1778.61,57.046c-.087-.279-.079-.488,.024-.626,.104-.137,.347-.265,.729-.384,.916-.287,1.452-.203,1.608,.252l2.075,5.637,1.874,5.932,3.703-1.157c.623-.194,1.007-.062,1.15,.396,.258,.827,.292,1.361,.103,1.603-.1,.129-.252,.225-.455,.288l-6.147,1.921-.4-.211-4.264-13.649Z"/><path class="cls-1" d="M1790.822,66.021l.688-.212-3.007-9.768-.574,.177c-.259,.066-.456,.036-.592-.09-.145-.15-.289-.462-.435-.934-.22-.713-.119-1.135,.302-1.265l3.383-1.041c.561-.173,.902-.062,1.023,.333,.35,1.135,.301,1.77-.146,1.907l-.478,.147,1.368,3.764,1.85,5.938,.573-.176c.45-.125,.736,.011,.857,.405,.324,1.143,.187,1.805-.413,1.989l-3.612,1.112c-.233,.059-.418,.024-.555-.101-.144-.151-.29-.469-.439-.953-.22-.714-.151-1.125,.206-1.235Z"/><path class="cls-1" d="M1797.849,50.321c.881-.266,1.42-.213,1.615,.16l3.08,5.482,3.688,7.431c.064,.12,.112,.234,.146,.343s.027,.207-.015,.297c-.043,.089-.249,.19-.619,.302-1.136,.344-1.815,.284-2.038-.177l-1.863-3.741-2.68,.811,.604,4.143c.043,.279,.049,.473,.019,.579s-.095,.182-.192,.226c-.099,.043-.263,.1-.492,.17l-.536,.162c-.447,.135-.735,.194-.865,.178-.312-.018-.506-.084-.583-.2-.032-.06-.056-.115-.071-.166s-.136-.934-.362-2.648c-.226-1.715-.486-3.761-.78-6.137-.294-2.377-.486-3.935-.577-4.673-.091-.739-.144-1.155-.158-1.248-.038-.309,.855-.739,2.681-1.292Zm.185,2.682l.793,5.799,1.895-.573-2.688-5.226Z"/><path class="cls-1" d="M1807.607,62.943l-4.002-13.562c-.14-.473,.251-.846,1.172-1.117,.191-.057,.344-.094,.456-.113s.268,0,.466,.061,.392,.173,.58,.34l5.812,7.043-2.487-8.003c-.136-.461,.257-.827,1.178-1.099,.384-.113,.659-.146,.826-.098s.298,.211,.395,.488l2.011,5.684,2.32,7.864c.064,.218,.101,.366,.111,.447,0,.193-.222,.357-.669,.489-.832,.245-1.4,.155-1.706-.269l-6.128-6.846,2.362,7.937c.068,.229,.107,.385,.117,.466,0,.193-.222,.357-.669,.489-1.279,.377-1.994,.31-2.145-.201Z"/></g><path class="cls-1" d="M2.469,186.076L0,181.728C125.909,110.244,251.944,63.51,374.607,42.824c40.099-6.762,95.603-13.674,114.57,4.272,4.999,4.729,7.113,10.869,6.285,18.248-6.833,60.891,11.551,80.727,28.177,86.646,39.748,14.149,117.379,9.106,146.989-1.68,95.644-34.837,224.446-71.029,362.681-101.91,119.191-26.626,216.782-42.843,251.581-45.1,33.729-2.187,79.919-5.183,91.998,29.225,1.708,4.866,1.598,13.388,1.458,24.178-.326,25.255-.819,63.421,22.44,86.326,14.367,14.148,36.435,20.899,65.538,20.078,76.536-2.168,155.445-28.83,238.987-57.059,67.507-22.81,137.312-46.396,215.452-61.392l.941,4.91c-77.805,14.931-147.445,38.462-214.793,61.218-83.907,28.351-163.161,55.13-240.446,57.32-30.501,.858-53.812-6.372-69.188-21.514-24.778-24.399-24.269-63.849-23.932-89.953,.128-9.888,.238-18.427-1.177-22.457-10.821-30.831-54.822-27.975-86.955-25.892-34.607,2.245-131.873,18.42-250.815,44.991-138.03,30.835-266.612,66.962-362.06,101.727-30.161,10.985-108.323,16.662-150.376,1.693-18.33-6.525-38.668-27.769-31.469-91.915,.653-5.816-.902-10.415-4.752-14.058-19.351-18.31-87.807-6.767-110.303-2.973C253.353,68.343,127.868,114.881,2.469,186.076Z"/></svg>