<?xml version="1.0" encoding="UTF-8"?><svg id="Layer_1" xmlns="http://www.w3.org/2000/svg" width="1927.522" height="580.808" viewBox="0 0 1927.522 580.808"><defs><style>.cls-1{fill:none;stroke-dasharray:0 0 0 0 0 0 12 12 12 12 12 12;stroke-width:3px;}.cls-1,.cls-2{stroke:#fff;stroke-miterlimit:10;}.cls-2{fill:#fff;}</style></defs><path class="cls-1" d="M.1,89.495c93.341-19.115,186.681-38.231,280.022-57.346,30.416-6.229,67.888-10.041,86.888,14.606,18.219,23.635,6.815,58.284-9.344,83.384s-37.301,50.002-37.32,79.889c-.022,35.031,30.827,63.92,64.417,73.395,33.59,9.475,69.963,7.038,103.794-1.529,201.019-50.902,354.182-123.394,434.655-107.563,87.282,17.17,20.339,85.468,20.433,100.06,.114,17.76,22.438,26.757,29.016,43.244,10,25.062-19.462,47.5-27.03,73.407-9.325,31.919,18.908,65.204,51.161,72.815,32.252,7.612,65.793-3.416,96.351-16.271,176.524-74.256,333.997-216.387,525.38-218.265,19.414-.19,43.51,4.656,48.634,23.458,7.974,29.26-37.876,44.69-46.191,73.854-6.533,22.914,13.327,45.784,35.368,54.638,22.04,8.855,46.643,8.893,69.281,16.071s45.107,25.866,43.81,49.665c-1.109,20.357-19.079,36.398-21.808,56.6-4.848,35.882,38.521,58.87,74.546,60.604,36.025,1.734,75.981-5.222,105.064,16.193"/><circle class="cls-2" cx="290.378" cy="29.822" r="17.445"/><circle class="cls-2" cx="484.148" cy="281.562" r="22.39"/><circle class="cls-2" cx="857.605" cy="175.878" r="20.872"/><circle class="cls-2" cx="1574.326" cy="232.59" r="14.191"/><circle class="cls-2" cx="1157.815" cy="417.577" r="20.408"/></svg>