<?xml version="1.0" encoding="utf-8"?>
<!-- Generator: Adobe Illustrator 26.5.0, SVG Export Plug-In . SVG Version: 6.00 Build 0)  -->
<svg version="1.1" id="Layer_1" xmlns="http://www.w3.org/2000/svg" xmlns:xlink="http://www.w3.org/1999/xlink" x="0px" y="0px"
	 viewBox="0 0 1919.1 725.6" style="enable-background:new 0 0 1919.1 725.6;" xml:space="preserve">
<style type="text/css">
	.st0{fill:#FFFFFF;}
	.st1{fill:#020202;}
</style>
<path class="st0" d="M286.4,666c-22.4,0-38.8-4.3-49.7-12.9c-16.8-13.3-17.7-34.5-18.5-53.2c-0.6-14.4-1.1-26.9-8.6-33.2
	c-20-16.9-56.8-22-103.7-14.3C67.8,558.8,26.5,573,0.5,588.8l-1-1.7c26.2-15.9,67.8-30.3,106.1-36.6c47.4-7.8,84.8-2.6,105.3,14.7
	c8.1,6.9,8.7,19.7,9.3,34.6c0.8,18.3,1.7,38.9,17.7,51.7c17.9,14.2,51.6,16.3,103.1,6.4c142.8-27.4,281.3-62.2,423.6-106.4
	c123.2-38.3,250.4-84.1,388.9-140.1c25.8-10.4,68.3-17,103.3-1.1c21.4,9.7,36.2,26.1,44.2,48.9c6.4,18.2,2.8,31.4-0.3,43.1
	c-2.7,9.9-5,18.5-0.5,27.9c8.7,18.3,32.6,18.6,53.6,18.9c2.6,0,5.1,0.1,7.6,0.1c21.9,0.6,43.5-6.3,64.4-13l3.6-1.2
	c174.4-55.7,325.4-77.6,489.6-70.9l-0.1,2c-164-6.6-314.8,15.2-488.9,70.8l-3.6,1.2c-21,6.7-42.7,13.7-65,13.1
	c-2.5-0.1-5-0.1-7.6-0.1c-21.6-0.3-46.1-0.6-55.4-20c-4.8-10-2.4-18.9,0.4-29.2c3.1-11.4,6.5-24.4,0.4-42
	c-7.8-22.3-22.3-38.3-43.2-47.8c-32.3-14.6-74.4-10-101.8,1.1c-138.5,56-265.7,101.9-389,140.2c-142.4,44.2-281,79.1-423.8,106.4
	C320.1,664,301.8,666,286.4,666L286.4,666z"/>
<path class="st0" d="M426.4,625.4c-28.9,0-63-11.2-78-37.4c-5.1-8.9-7-19.1-8.9-29c-1.7-9.1-3.5-18.5-7.8-26.8
	c-11.4-22.1-38.6-34.1-80.9-35.8c-93.1-3.7-172.7,12.9-250.4,52.1l-0.9-1.8c78-39.4,157.9-56,251.4-52.3
	c43.1,1.7,70.9,14.1,82.6,36.8c4.4,8.5,6.2,18,8,27.3c1.9,9.7,3.8,19.8,8.7,28.4c15.4,26.9,51.9,37.6,81.3,36.2
	c124.1-5.9,243.5-44.2,359-81.3c110.6-35.5,240.5-68.2,365.1-40.9c8.2,1.8,19.4,5.3,22.1,14.7c2.6,9.2-4.2,16.7-10.8,23.9
	c-2.6,2.8-5.2,5.7-7.2,8.6c-6.5,9.4-5.9,19.6-4.2,26.5c3.1,12.9,12.2,24.9,23.9,31.3c20,10.9,44.7,9.7,68.3,6.8
	c86.4-10.7,171.2-37.1,253.2-62.7c34.1-10.6,69.4-21.7,104.3-31.4c8.8-2.4,17.3-4.9,25.7-7.2c103.9-29.3,179-50.5,288.5-16.7
	l-0.6,1.9c-108.9-33.6-183.8-12.5-287.4,16.7c-8.4,2.4-16.9,4.8-25.7,7.2c-34.9,9.7-70.2,20.7-104.3,31.4
	c-82.1,25.6-166.9,52.1-253.5,62.8c-24,3-49,4.2-69.5-7c-12.1-6.6-21.6-19.1-24.8-32.6c-2.5-10.3-0.8-20.3,4.5-28.1
	c2.1-3,4.8-6,7.4-8.8c6.5-7.1,12.7-13.9,10.3-22c-2.4-8.4-12.9-11.6-20.6-13.3c-124.2-27.2-253.8,5.4-364.1,40.8
	c-115.6,37.1-235.2,75.6-359.6,81.4C429.8,625.3,428.1,625.4,426.4,625.4L426.4,625.4z"/>
<path class="st0" d="M0.3,615.4l-2.5-4.3c125.9-71.5,251.9-118.2,374.6-138.9c40.1-6.8,95.6-13.7,114.6,4.3c5,4.7,7.1,10.9,6.3,18.2
	c-6.8,60.9,11.6,80.7,28.2,86.6c39.7,14.1,117.4,9.1,147-1.7c95.6-34.8,224.4-71,362.7-101.9c119.2-26.6,216.8-42.8,251.6-45.1
	c33.7-2.2,79.9-5.2,92,29.2c1.7,4.9,1.6,13.4,1.5,24.2c-0.3,25.3-0.8,63.4,22.4,86.3c14.4,14.1,36.4,20.9,65.5,20.1
	c76.5-2.2,155.4-28.8,239-57.1c67.5-22.8,137.3-46.4,215.5-61.4l0.9,4.9c-77.8,14.9-147.4,38.5-214.8,61.2
	c-83.9,28.4-163.2,55.1-240.4,57.3c-30.5,0.9-53.8-6.4-69.2-21.5c-24.8-24.4-24.3-63.8-23.9-90c0.1-9.9,0.2-18.4-1.2-22.5
	c-10.8-30.8-54.8-28-87-25.9c-34.6,2.2-131.9,18.4-250.8,45c-138,30.8-266.6,67-362.1,101.7c-30.2,11-108.3,16.7-150.4,1.7
	c-18.3-6.5-38.7-27.8-31.5-91.9c0.7-5.8-0.9-10.4-4.8-14.1c-19.4-18.3-87.8-6.8-110.3-3C251.2,497.7,125.7,544.2,0.3,615.4z"/>
<g>
	<g>
		<g>
			<path class="st0" d="M870.2,516.5l-271.6-30.7l71.7,92.1C670.3,577.8,869.8,516.7,870.2,516.5L870.2,516.5z"/>
			<path class="st1" d="M670.1,578.4l-0.2-0.3l-72.4-93l274.7,31.1l-1.7,0.7c-0.4,0.2-166.7,51.2-200,61.4L670.1,578.4L670.1,578.4z
				 M599.7,486.4l70.8,90.9c8.6-2.6,175.9-53.9,197.3-60.5L599.7,486.4L599.7,486.4z"/>
		</g>
		<g>
			<polygon class="st0" points="681.4,574.4 892.1,392.2 892.1,509.8 			"/>
			<path class="st1" d="M679.3,575.6l213.3-184.5v119L679.3,575.6z M891.6,393.3l-208,180l208-63.9V393.3z"/>
		</g>
		<g>
			<path class="st0" d="M833.3,443L702,307.5l-33.8,186.2c1.2,0.1,94.2,10.7,94.2,10.7S833.3,443.4,833.3,443L833.3,443z"/>
			<path class="st1" d="M762.6,504.9l-0.2,0c-0.9-0.1-93-10.6-94.2-10.7l-0.5-0.1l0.1-0.5l34-187.1l0.7,0.7l131.4,135.7l0,0.2
				c0,0.3,0,0.6-71.1,61.7L762.6,504.9L762.6,504.9z M668.8,493.2c7.4,0.8,87.6,9.9,93.5,10.6c23.2-19.9,66.2-57,70.3-60.8
				L702.3,308.5L668.8,493.2L668.8,493.2z"/>
		</g>
		<g>
			<path class="st0" d="M702.3,308.3l72.8,237.4"/>
			
				<rect x="738.2" y="302.9" transform="matrix(0.956 -0.2934 0.2934 0.956 -92.7704 235.5053)" class="st1" width="1" height="248.3"/>
		</g>
	</g>
	
		<rect x="815.8" y="456.2" transform="matrix(0.112 -0.9937 0.9937 0.112 217.6855 1264.4327)" class="st1" width="1" height="108.5"/>
</g>
</svg>
