<?xml version="1.0" encoding="UTF-8"?><svg id="Layer_1" xmlns="http://www.w3.org/2000/svg" width="1921.704" height="359.56" viewBox="0 0 1921.704 359.56"><defs><style>.cls-1{fill:#020202;}.cls-2{fill:#fff;}</style></defs><path class="cls-2" d="M288.546,359.56c-22.404,0-38.838-4.291-49.72-12.902-16.812-13.304-17.712-34.476-18.506-53.155-.612-14.418-1.142-26.87-8.588-33.166-20.009-16.915-56.829-21.987-103.673-14.284-38.055,6.259-79.415,20.501-105.371,36.286l-1.039-1.709c26.157-15.907,67.798-30.254,106.085-36.551,47.436-7.801,84.827-2.569,105.289,14.73,8.117,6.862,8.663,19.721,9.296,34.608,.775,18.251,1.654,38.937,17.748,51.672,17.906,14.17,51.64,16.26,103.131,6.383,142.762-27.378,281.327-62.179,423.614-106.393,123.236-38.294,250.438-84.134,388.877-140.138,25.75-10.418,68.265-16.953,103.334-1.085,21.369,9.668,36.248,26.13,44.225,48.926,6.36,18.179,2.804,31.444-.333,43.147-2.659,9.917-4.955,18.483-.493,27.855,8.71,18.298,32.557,18.611,53.595,18.889,2.589,.034,5.146,.067,7.642,.132,21.938,.586,43.51-6.35,64.369-13.04l3.615-1.158c174.351-55.71,325.363-77.588,489.633-70.943l-.08,1.999c-164.035-6.642-314.827,15.213-488.943,70.849l-3.613,1.157c-21.019,6.742-42.744,13.716-65.032,13.136-2.488-.064-5.036-.099-7.616-.132-21.622-.285-46.129-.607-55.374-20.029-4.779-10.038-2.395-18.934,.366-29.233,3.063-11.424,6.534-24.372,.377-41.968-7.788-22.26-22.31-38.33-43.161-47.765-32.28-14.604-74.368-9.964-101.759,1.117-138.49,56.025-265.744,101.883-389.034,140.194-142.358,44.235-280.994,79.055-423.83,106.447-21.269,4.078-39.571,6.122-55.028,6.123h-.003Z"/><path class="cls-2" d="M428.542,318.919c-28.937,0-62.986-11.236-77.954-37.354-5.091-8.884-7.037-19.118-8.919-29.016-1.732-9.107-3.523-18.524-7.769-26.752-11.38-22.052-38.602-34.083-80.909-35.758-93.107-3.686-172.667,12.874-250.371,52.114l-.901-1.785c78.018-39.399,157.883-56.029,251.352-52.327,43.08,1.706,70.873,14.1,82.607,36.839,4.379,8.485,6.197,18.048,7.956,27.296,1.852,9.734,3.766,19.802,8.69,28.395,15.444,26.949,51.942,37.62,81.265,36.23,124.071-5.858,243.52-44.23,359.037-81.34,110.595-35.527,240.463-68.167,365.144-40.883,8.19,1.793,19.392,5.27,22.1,14.729,2.647,9.246-4.184,16.715-10.789,23.938-2.55,2.789-5.188,5.671-7.203,8.589-6.474,9.366-5.877,19.567-4.237,26.477,3.069,12.93,12.209,24.912,23.853,31.271,20.026,10.938,44.681,9.736,68.337,6.81,86.442-10.697,171.217-37.147,253.199-62.728,34.114-10.644,69.39-21.65,104.324-31.379,8.784-2.446,17.337-4.86,25.694-7.219,103.901-29.323,178.971-50.508,288.484-16.688l-.59,1.911c-108.95-33.647-183.781-12.528-287.352,16.701-8.359,2.359-16.915,4.774-25.7,7.221-34.905,9.721-70.166,20.722-104.266,31.362-82.067,25.606-166.928,52.084-253.549,62.803-23.989,2.969-49.019,4.171-69.542-7.038-12.126-6.623-21.644-19.102-24.839-32.565-2.451-10.325-.84-20.296,4.537-28.075,2.094-3.03,4.777-5.965,7.372-8.802,6.522-7.131,12.683-13.867,10.344-22.038-2.414-8.43-12.916-11.643-20.605-13.326-124.216-27.184-253.763,5.388-364.104,40.833-115.64,37.149-235.217,75.562-359.553,81.434-1.692,.08-3.407,.12-5.141,.12h-.002Z"/><path class="cls-2" d="M2.469,308.967l-2.469-4.348c125.909-71.484,251.944-118.218,374.607-138.904,40.099-6.762,95.603-13.674,114.57,4.272,4.999,4.729,7.113,10.869,6.285,18.248-6.833,60.891,11.551,80.727,28.177,86.646,39.748,14.149,117.379,9.106,146.989-1.68,95.644-34.837,224.446-71.029,362.681-101.91,119.191-26.626,216.782-42.843,251.581-45.1,33.729-2.187,79.919-5.183,91.998,29.225,1.708,4.866,1.598,13.388,1.458,24.178-.326,25.255-.819,63.421,22.44,86.326,14.367,14.148,36.435,20.899,65.538,20.078,76.536-2.168,155.445-28.83,238.987-57.059,67.507-22.81,137.312-46.396,215.452-61.392l.941,4.91c-77.805,14.931-147.445,38.462-214.793,61.218-83.907,28.351-163.161,55.13-240.446,57.32-30.501,.858-53.812-6.372-69.188-21.514-24.778-24.399-24.269-63.849-23.932-89.953,.128-9.888,.238-18.427-1.177-22.457-10.821-30.831-54.822-27.975-86.955-25.892-34.607,2.245-131.873,18.42-250.815,44.991-138.03,30.835-266.612,66.962-362.06,101.727-30.161,10.985-108.323,16.662-150.376,1.693-18.33-6.525-38.668-27.769-31.469-91.915,.653-5.816-.902-10.415-4.752-14.058-19.351-18.31-87.807-6.767-110.303-2.973C253.353,191.234,127.868,237.772,2.469,308.967Z"/><g><g><g><path class="cls-2" d="M872.403,210.046l-271.642-30.71,71.7,92.061s199.552-61.181,199.942-61.351h0Z"/><path class="cls-1" d="M672.278,271.976l-.212-.271-72.43-93,274.68,31.054-1.714,.746c-.396,.172-166.667,51.152-199.995,61.37l-.329,.102h0Zm-70.393-92.011l70.758,90.852c8.607-2.639,175.863-53.92,197.335-60.543l-268.093-30.309h0Z"/></g><g><polygon class="cls-2" points="683.577 267.993 894.221 85.758 894.221 203.319 683.577 267.993"/><path class="cls-1" d="M681.455,269.167l213.266-184.503v119.024l-213.266,65.479Zm212.266-182.315l-208.022,179.966,208.022-63.869V86.852Z"/></g><g><path class="cls-2" d="M835.49,136.568L704.196,1.047l-33.824,186.157c1.192,.113,94.232,10.688,94.232,10.688,0,0,70.865-60.945,70.885-61.325h0Z"/><path class="cls-1" d="M764.765,198.415l-.217-.025c-.93-.105-93.049-10.576-94.223-10.688l-.542-.051,.097-.536L703.878,0l.677,.699,131.445,135.677-.011,.218c-.016,.292-.031,.594-71.059,61.678l-.166,.143h.001Zm-93.805-11.649c7.436,.826,87.594,9.937,93.483,10.606,23.163-19.92,66.163-56.968,70.342-60.812L704.513,2.094l-33.554,184.671h.001Z"/></g><g><path class="cls-2" d="M704.452,1.88l72.845,237.372"/><rect class="cls-1" x="740.373" y="-3.577" width="1" height="248.298" transform="translate(-2.773 222.658) rotate(-17.06)"/></g></g><rect class="cls-1" x="818.005" y="149.729" width="1" height="108.481" transform="translate(524.127 994.473) rotate(-83.568)"/></g></svg>