<?xml version="1.0" encoding="UTF-8"?><svg id="Layer_1" xmlns="http://www.w3.org/2000/svg" width="1921.7" height="359.6" viewBox="0 0 1921.7 359.6"><defs><style>.cls-1{fill:#020202;}.cls-2{fill:#fff;}</style></defs><path class="cls-2" d="M288.5,359.6c-22.4,0-38.8-4.3-49.7-12.9-16.8-13.3-17.7-34.5-18.5-53.2-.6-14.4-1.1-26.9-8.6-33.2-20-16.9-56.8-22-103.7-14.3-38,6.3-79.4,20.6-105.3,36.3l-1-1.7c26.2-15.9,67.8-30.3,106.1-36.6,47.4-7.8,84.8-2.6,105.3,14.7,8.1,6.9,8.7,19.7,9.3,34.6,.8,18.3,1.7,38.9,17.7,51.7,17.9,14.2,51.6,16.3,103.1,6.4,142.8-27.4,281.3-62.2,423.6-106.4,123.2-38.3,250.4-84.1,388.9-140.1,25.8-10.4,68.3-17,103.3-1.1,21.4,9.7,36.2,26.1,44.2,48.9,6.4,18.2,2.8,31.4-.3,43.1-2.7,9.9-5,18.5-.5,27.9,8.7,18.3,32.6,18.6,53.6,18.9,2.6,0,5.1,.1,7.6,.1,21.9,.6,43.5-6.4,64.4-13l3.6-1.2c174.4-55.7,325.4-77.6,489.6-70.9l-.1,2c-164-6.6-314.8,15.2-488.9,70.8l-3.6,1.2c-21,6.7-42.7,13.7-65,13.1-2.5-.1-5-.1-7.6-.1-21.6-.3-46.1-.6-55.4-20-4.8-10-2.4-18.9,.4-29.2,3.1-11.4,6.5-24.4,.4-42-7.8-22.3-22.3-38.3-43.2-47.8-32.3-14.6-74.4-10-101.8,1.1-138.5,56-265.7,101.9-389,140.2-142.4,44.3-281,79.1-423.8,106.5-21.3,4.1-39.6,6.2-55.1,6.2h0Z"/><path class="cls-2" d="M428.5,318.9c-28.9,0-63-11.2-78-37.4-5.1-8.9-7-19.1-8.9-29-1.7-9.1-3.5-18.5-7.8-26.8-11.4-22.1-38.6-34.1-80.9-35.8-93.1-3.7-172.7,12.9-250.4,52.1l-.9-1.8c78-39.4,157.9-56,251.4-52.3,43.1,1.7,70.9,14.1,82.6,36.8,4.4,8.5,6.2,18,8,27.3,1.9,9.7,3.8,19.8,8.7,28.4,15.4,26.9,51.9,37.6,81.3,36.2,124.1-5.9,243.5-44.2,359-81.3,110.6-35.5,240.5-68.2,365.1-40.9,8.2,1.8,19.4,5.3,22.1,14.7,2.6,9.2-4.2,16.7-10.8,23.9-2.6,2.8-5.2,5.7-7.2,8.6-6.5,9.4-5.9,19.6-4.2,26.5,3.1,12.9,12.2,24.9,23.9,31.3,20,10.9,44.7,9.7,68.3,6.8,86.4-10.7,171.2-37.1,253.2-62.7,34.1-10.6,69.4-21.6,104.3-31.4,8.8-2.4,17.3-4.9,25.7-7.2,103.9-29.3,179-50.5,288.5-16.7l-.6,1.9c-108.9-33.6-183.8-12.5-287.4,16.7-8.4,2.4-16.9,4.8-25.7,7.2-34.9,9.7-70.2,20.7-104.3,31.4-82.1,25.6-166.9,52.1-253.5,62.8-24,3-49,4.2-69.5-7-12.1-6.6-21.6-19.1-24.8-32.6-2.5-10.3-.8-20.3,4.5-28.1,2.1-3,4.8-6,7.4-8.8,6.5-7.1,12.7-13.9,10.3-22-2.4-8.4-12.9-11.6-20.6-13.3-124.2-27.2-253.8,5.4-364.1,40.8-115.6,37.1-235.2,75.6-359.6,81.4-1.6,.3-3.3,.3-5.1,.3h0Z"/><path class="cls-2" d="M2.5,309l-2.5-4.4c125.9-71.5,251.9-118.2,374.6-138.9,40.1-6.8,95.6-13.7,114.6,4.3,5,4.7,7.1,10.9,6.3,18.2-6.8,60.9,11.6,80.7,28.2,86.6,39.7,14.1,117.4,9.1,147-1.7,95.6-34.8,224.4-71,362.7-101.9,119.2-26.6,216.8-42.8,251.6-45.1,33.7-2.2,79.9-5.2,92,29.2,1.7,4.9,1.6,13.4,1.5,24.2-.3,25.3-.8,63.4,22.4,86.3,14.4,14.1,36.4,20.9,65.5,20.1,76.5-2.2,155.4-28.8,239-57.1,67.5-22.8,137.3-46.4,215.5-61.4l.9,4.9c-77.8,14.9-147.4,38.5-214.8,61.2-83.9,28.4-163.2,55.1-240.4,57.3-30.5,.9-53.8-6.4-69.2-21.5-24.8-24.4-24.3-63.8-23.9-90,.1-9.9,.2-18.4-1.2-22.5-10.8-30.8-54.8-28-87-25.9-34.6,2.2-131.9,18.4-250.8,45-138,30.8-266.6,67-362.1,101.7-30.2,11-108.3,16.7-150.4,1.7-18.3-6.5-38.7-27.8-31.5-91.9,.7-5.8-.9-10.4-4.8-14.1-19.4-18.3-87.8-6.8-110.3-3C253.4,191.2,127.9,237.8,2.5,309Z"/><g><g><g><path class="cls-2" d="M872.4,210l-271.6-30.7,71.7,92.1s199.5-61.2,199.9-61.4h0Z"/><path class="cls-1" d="M672.3,272l-.2-.3-72.4-93,274.7,31.1-1.7,.7c-.4,.2-166.7,51.2-200,61.4l-.4,.1h0Zm-70.4-92l70.8,90.9c8.6-2.6,175.9-53.9,197.3-60.5l-268.1-30.4h0Z"/></g><g><polygon class="cls-2" points="683.6 268 894.2 85.8 894.2 203.3 683.6 268"/><path class="cls-1" d="M681.5,269.2l213.2-184.5v119l-213.2,65.5Zm212.2-182.3l-208,180,208-63.9V86.9h0Z"/></g><g><path class="cls-2" d="M835.5,136.6L704.2,1l-33.8,186.2c1.2,.1,94.2,10.7,94.2,10.7,0,0,70.9-61,70.9-61.3h0Z"/><path class="cls-1" d="M764.8,198.4h-.2c-.9-.1-93-10.6-94.2-10.7l-.5-.1,.1-.5L703.9,0l.7,.7,131.4,135.7v.2c0,.3,0,.6-71.1,61.7l-.1,.1h0Zm-93.8-11.6c7.4,.8,87.6,9.9,93.5,10.6,23.2-19.9,66.2-57,70.3-60.8L704.5,2.1l-33.5,184.7h0Z"/></g><g><path class="cls-2" d="M704.5,1.9l72.8,237.4"/><rect class="cls-1" x="740.397" y="-3.628" width="1" height="248.302" transform="translate(-2.755 222.681) rotate(-17.061)"/></g></g><rect class="cls-1" x="817.964" y="149.722" width="1" height="108.499" transform="translate(524.107 994.441) rotate(-83.569)"/></g></svg>